<svg width="24" height="24" viewBox="0 0 24 24" fill="none" xmlns="http://www.w3.org/2000/svg">
    <g clip-path="url(#clip0)">
        <path d="M19.409 9.92145C19.7276 9.92145 19.9859 9.66315 19.9859 9.34451C19.9859 9.02588 19.7276 8.76758 19.409 8.76758C19.0903 8.76758 18.832 9.02588 18.832 9.34451C18.832 9.66315 19.0903 9.92145 19.409 9.92145Z" fill="black"/>
        <path d="M15.7058 9.92145C16.0245 9.92145 16.2828 9.66315 16.2828 9.34451C16.2828 9.02588 16.0245 8.76758 15.7058 8.76758C15.3872 8.76758 15.1289 9.02588 15.1289 9.34451C15.1289 9.66315 15.3872 9.92145 15.7058 9.92145Z" fill="black"/>
        <path d="M11.9988 9.92145C12.3174 9.92145 12.5757 9.66315 12.5757 9.34451C12.5757 9.02588 12.3174 8.76758 11.9988 8.76758C11.6802 8.76758 11.4219 9.02588 11.4219 9.34451C11.4219 9.66315 11.6802 9.92145 11.9988 9.92145Z" fill="black"/>
        <path d="M8.29569 9.92145C8.61432 9.92145 8.87263 9.66315 8.87263 9.34451C8.87263 9.02588 8.61432 8.76758 8.29569 8.76758C7.97705 8.76758 7.71875 9.02588 7.71875 9.34451C7.71875 9.66315 7.97705 9.92145 8.29569 9.92145Z" fill="black"/>
        <path d="M4.58866 9.92145C4.90729 9.92145 5.16559 9.66315 5.16559 9.34451C5.16559 9.02588 4.90729 8.76758 4.58866 8.76758C4.27002 8.76758 4.01172 9.02588 4.01172 9.34451C4.01172 9.66315 4.27002 9.92145 4.58866 9.92145Z" fill="black"/>
        <path d="M19.409 13.6265C19.7276 13.6265 19.9859 13.3682 19.9859 13.0496C19.9859 12.731 19.7276 12.4727 19.409 12.4727C19.0903 12.4727 18.832 12.731 18.832 13.0496C18.832 13.3682 19.0903 13.6265 19.409 13.6265Z" fill="black"/>
        <path d="M15.7058 13.6265C16.0245 13.6265 16.2828 13.3682 16.2828 13.0496C16.2828 12.731 16.0245 12.4727 15.7058 12.4727C15.3872 12.4727 15.1289 12.731 15.1289 13.0496C15.1289 13.3682 15.3872 13.6265 15.7058 13.6265Z" fill="black"/>
        <path d="M11.9988 13.6265C12.3174 13.6265 12.5757 13.3682 12.5757 13.0496C12.5757 12.731 12.3174 12.4727 11.9988 12.4727C11.6802 12.4727 11.4219 12.731 11.4219 13.0496C11.4219 13.3682 11.6802 13.6265 11.9988 13.6265Z" fill="black"/>
        <path d="M4.58866 13.6265C4.90729 13.6265 5.16559 13.3682 5.16559 13.0496C5.16559 12.731 4.90729 12.4727 4.58866 12.4727C4.27002 12.4727 4.01172 12.731 4.01172 13.0496C4.01172 13.3682 4.27002 13.6265 4.58866 13.6265Z" fill="black"/>
        <path d="M19.409 17.3297C19.7276 17.3297 19.9859 17.0714 19.9859 16.7527C19.9859 16.4341 19.7276 16.1758 19.409 16.1758C19.0903 16.1758 18.832 16.4341 18.832 16.7527C18.832 17.0714 19.0903 17.3297 19.409 17.3297Z" fill="black"/>
        <path d="M15.7058 17.3297C16.0245 17.3297 16.2828 17.0714 16.2828 16.7527C16.2828 16.4341 16.0245 16.1758 15.7058 16.1758C15.3872 16.1758 15.1289 16.4341 15.1289 16.7527C15.1289 17.0714 15.3872 17.3297 15.7058 17.3297Z" fill="black"/>
        <path d="M11.9988 17.3297C12.3174 17.3297 12.5757 17.0714 12.5757 16.7527C12.5757 16.4341 12.3174 16.1758 11.9988 16.1758C11.6802 16.1758 11.4219 16.4341 11.4219 16.7527C11.4219 17.0714 11.6802 17.3297 11.9988 17.3297Z" fill="black"/>
        <path d="M8.29569 17.3297C8.61432 17.3297 8.87263 17.0714 8.87263 16.7527C8.87263 16.4341 8.61432 16.1758 8.29569 16.1758C7.97705 16.1758 7.71875 16.4341 7.71875 16.7527C7.71875 17.0714 7.97705 17.3297 8.29569 17.3297Z" fill="black"/>
        <path d="M4.58866 17.3297C4.90729 17.3297 5.16559 17.0714 5.16559 16.7527C5.16559 16.4341 4.90729 16.1758 4.58866 16.1758C4.27002 16.1758 4.01172 16.4341 4.01172 16.7527C4.01172 17.0714 4.27002 17.3297 4.58866 17.3297Z" fill="black"/>
        <path d="M10.0369 10.8105H6.55453C6.28059 10.8105 6.05859 11.0325 6.05859 11.3065V14.7889C6.05859 15.0628 6.28059 15.2848 6.55453 15.2848H10.0369C10.3108 15.2848 10.5328 15.0628 10.5328 14.7889V11.3066C10.5328 11.0326 10.3108 10.8105 10.0369 10.8105ZM9.54094 14.2929H7.05047V11.8025H9.54089V14.2929H9.54094Z" fill="black"/>
        <path d="M22.3469 4.17781H18.7043V3.5413C18.7043 3.23694 18.4575 2.99023 18.1532 2.99023C17.8489 2.99023 17.6021 3.23698 17.6021 3.5413V4.17781H14.6021V3.5413C14.6021 3.23694 14.3553 2.99023 14.051 2.99023C13.7467 2.99023 13.5 3.23698 13.5 3.5413V4.17781H10.5V3.5413C10.5 3.23694 10.2533 2.99023 9.94894 2.99023C9.64458 2.99023 9.39787 3.23698 9.39787 3.5413V4.17781H6.39783V3.5413C6.39783 3.23694 6.15112 2.99023 5.84677 2.99023C5.54241 2.99023 5.2957 3.23698 5.2957 3.5413V4.17781H1.65305C0.741609 4.17781 0 4.91938 0 5.83091V19.3578C0 20.2693 0.741609 21.0109 1.65314 21.0109H22.3469C23.2584 21.0109 24 20.2693 24 19.3578V5.83091C24 4.91938 23.2583 4.17781 22.3469 4.17781ZM22.3469 19.9089H1.65314C1.3493 19.9089 1.10208 19.6617 1.10208 19.3578V5.83091C1.10208 5.52706 1.3493 5.27984 1.65314 5.27984H5.29575V5.91631C5.29575 6.22058 5.54245 6.46738 5.84681 6.46738C6.15117 6.46738 6.39788 6.22063 6.39788 5.91631V5.27984H9.39792V5.91631C9.39792 6.22058 9.64462 6.46738 9.94898 6.46738C10.2533 6.46738 10.5 6.22063 10.5 5.91631V5.27984H13.5V5.91631C13.5 6.22058 13.7467 6.46738 14.0511 6.46738C14.3553 6.46738 14.6021 6.22063 14.6021 5.91631V5.27984H17.6022V5.91631C17.6022 6.22058 17.8489 6.46738 18.1532 6.46738C18.4576 6.46738 18.7043 6.22063 18.7043 5.91631V5.27984H22.3469C22.6508 5.27984 22.898 5.52706 22.898 5.83091V19.3578H22.898C22.8979 19.6617 22.6507 19.9089 22.3469 19.9089Z" fill="black"/>
    </g>
    <defs>
        <clipPath id="clip0">
            <rect width="24" height="24" fill="white"/>
        </clipPath>
    </defs>
</svg>
