<svg width="16" height="20" viewBox="0 0 16 20" fill="none" xmlns="http://www.w3.org/2000/svg">
    <path d="M0.330326 15.9161C0.389764 15.878 0.837105 15.568 1.28504 14.6303C2.10765 12.9084 2.28031 10.4827 2.28031 8.75098C2.28031 8.74344 2.28047 8.73598 2.28075 8.72848C2.28971 6.43984 3.67526 4.46695 5.65799 3.58176V2.22797C5.65799 0.999453 6.66681 0 7.90682 0H8.09319C9.3332 0 10.342 0.999453 10.342 2.22797V3.58168C12.3314 4.46973 13.7197 6.45269 13.7197 8.75098C13.7197 10.4827 13.8924 12.9083 14.715 14.6303C15.1629 15.568 15.6102 15.8779 15.6697 15.9161C15.9202 16.0308 16.0436 16.2956 15.986 16.564C15.9279 16.8351 15.6717 17.022 15.392 17.022H11.0498C11.0255 18.6681 9.6672 20 7.99998 20C6.33277 20 4.97443 18.6681 4.95019 17.022H0.608004C0.328311 17.022 0.0721178 16.8351 0.0139446 16.564C-0.0435982 16.2956 0.0798597 16.0307 0.330326 15.9161ZM9.15718 2.22797C9.15718 1.64668 8.67986 1.17379 8.09315 1.17379H7.90678C7.32007 1.17379 6.84275 1.64668 6.84275 2.22797V3.20129C7.21667 3.12484 7.60375 3.08461 8.00014 3.08461C8.39642 3.08461 8.78338 3.1248 9.15714 3.20117V2.22797H9.15718ZM7.99998 18.8262C9.0139 18.8262 9.84093 18.0209 9.86498 17.022H6.13503C6.15904 18.0208 6.98607 18.8262 7.99998 18.8262ZM5.61458 15.8481C5.6147 15.8481 14.0419 15.8481 14.0419 15.8481C13.9394 15.6902 13.8351 15.5113 13.7314 15.3091C12.9375 13.7606 12.5349 11.5541 12.5349 8.75098C12.5349 6.27375 10.5006 4.2584 8.00018 4.2584C5.49978 4.2584 3.46551 6.27375 3.46551 8.75293C3.46551 8.76016 3.46539 8.76734 3.46512 8.77453C3.46286 11.5664 3.06031 13.765 2.26854 15.3091C2.16487 15.5113 2.06053 15.6902 1.95809 15.8481H5.61458Z" fill="black"/>
</svg>
