<svg width="20" height="18" viewBox="0 0 20 18" fill="none" xmlns="http://www.w3.org/2000/svg">
<path d="M3 10L9.5 16.5L18 10V4L13 1.5L10 4L5.5 1.5L1.5 5L3 10Z" fill="#FF0000"/>
<path d="M3.78951 9.96269L3.78952 9.9627C4.80358 11.1864 6.31755 12.4777 8.09906 13.996L8.10133 13.9979L8.10345 13.9996C8.67774 14.4891 9.32412 15.04 9.99878 15.6278C10.6771 15.0388 11.3246 14.487 11.9003 13.9966C13.6821 12.4779 15.1963 11.1866 16.2106 9.9627C17.2517 8.70633 17.6957 7.61579 17.6957 6.40953C17.6957 5.2514 17.3065 4.20343 16.6131 3.45131C15.9315 2.71193 14.995 2.30441 13.9717 2.30441C13.2284 2.30441 12.5473 2.53947 11.9413 3.00804C11.3973 3.42895 11.0137 3.96548 10.7864 4.3463C10.6199 4.62517 10.3247 4.79295 9.99998 4.79295C9.67523 4.79295 9.38007 4.62517 9.21362 4.3463L9.21358 4.34625C8.98644 3.96547 8.60283 3.42893 8.0586 3.00803C7.45261 2.53946 6.77154 2.30441 6.02843 2.30441C5.00495 2.30441 4.06864 2.71192 3.38684 3.45131L3.78951 9.96269ZM3.78951 9.96269C2.74825 8.70632 2.30427 7.61579 2.30427 6.40953C2.30427 5.25141 2.69346 4.20345 3.38682 3.45133L3.78951 9.96269ZM7.09334 15.181L7.09334 15.181L7.09524 15.1826C7.71383 15.7097 8.41368 16.3062 9.13942 16.9408C9.3776 17.1494 9.68321 17.2642 9.99998 17.2642C10.3165 17.2642 10.6222 17.1495 10.8603 16.9412C11.5877 16.3051 12.2887 15.7076 12.9084 15.1796L12.9084 15.1796L12.9234 15.1668C14.7247 13.6317 16.3039 12.2858 17.4073 10.9544C18.6528 9.45166 19.25 8.00363 19.25 6.40953C19.25 4.87377 18.7233 3.44699 17.756 2.39775L17.5722 2.5672L17.756 2.39774C16.7762 1.33515 15.4306 0.75 13.9717 0.75C12.8761 0.75 11.871 1.09757 10.9906 1.77852C10.6306 2.05691 10.2995 2.38486 10 2.75786C9.70055 2.38484 9.3694 2.0569 9.00955 1.77853L9.00953 1.77852C8.12908 1.09757 7.12396 0.75 6.02843 0.75C4.56931 0.75 3.22385 1.33515 2.24415 2.39774L2.24414 2.39775C1.27685 3.44697 0.75 4.87376 0.75 6.40953C0.75 8.00365 1.34734 9.45167 2.59278 10.9545L2.59279 10.9545C3.69644 12.2862 5.27638 13.6326 7.07854 15.1683L7.09019 15.1782L7.09208 15.1799L7.09334 15.181Z" fill="#2B1515" stroke="#151A2B" stroke-width="0.5"/>
</svg>
