<svg width="11" height="16" viewBox="0 0 11 16" fill="none" xmlns="http://www.w3.org/2000/svg">
<path d="M4.87126 0.207005L0.35883 4.71943C0.0835153 4.99475 0.0835152 5.44125 0.35883 5.71656C0.634201 5.99194 1.08059 5.99194 1.35596 5.71656L4.66476 2.40777L4.66476 14.459C4.66476 14.8484 4.98046 15.1641 5.36982 15.1641C5.75913 15.1641 6.07489 14.8484 6.07489 14.459L6.07489 2.40777L9.38368 5.71645C9.65905 5.99182 10.1054 5.99182 10.3808 5.71645C10.5184 5.57882 10.5873 5.39833 10.5873 5.21789C10.5873 5.03744 10.5184 4.857 10.3808 4.71932L5.86839 0.207005C5.59302 -0.068366 5.14663 -0.068366 4.87126 0.207005Z" fill="white"/>
</svg>
