<svg xmlns="http://www.w3.org/2000/svg" viewBox="0 0 118.57 128.8"><circle cx="68.51" cy="64.4" r="15.63" style="fill:#7a2ae8"/><path d="M68.51,99.78c-20,0-33.82-14.15-33.82-35.37S48.56,29,68.51,29c11.24,0,20.37,4.8,27.86,13.59a1.13,1.13,0,0,0,1.63.11l20.2-18.65a1.14,1.14,0,0,0,.12-1.55C106.52,8,88.74,0,66.78,0,28.27,0,0,26.72,0,64.41S28.27,128.8,66.78,128.8c22,0,39.74-8,51.54-22.52a1.14,1.14,0,0,0-.12-1.55L98,86.08a1.14,1.14,0,0,0-1.63.11C88.88,95,79.75,99.78,68.51,99.78Z" style="fill:#151a2b"/><path d="M101.15,49.6,67.24,63.42h0a1.1,1.1,0,0,0,0,2L111.5,83.87a1.1,1.1,0,0,0,1.52-1V46.39a1.09,1.09,0,0,0-1.51-1Z" style="fill:#7a2ae8;opacity:0.5"/></svg>