<svg width="375" height="372" viewBox="0 0 375 372" fill="none" xmlns="http://www.w3.org/2000/svg">
<g clip-path="url(#clip0)">
<path opacity="0.1" d="M112.354 276.826C100.885 275.95 85.2061 275.41 67.9008 275.41C32.784 275.41 4.30078 277.625 4.30078 280.37C4.30078 283.114 32.784 285.319 67.9008 285.319C83.7093 285.319 98.1501 284.876 109.274 284.13L112.354 276.826Z" fill="#6C63FF"/>
<path opacity="0.1" d="M239.125 71.9651C211.212 67.0162 185.712 54.6763 161.526 41.7097C137.339 28.7432 113.551 14.8582 86.8661 5.99767C69.7223 0.303182 49.6387 -3.05729 34.1856 3.72854C19.3248 10.2118 12.8097 24.2589 8.48067 37.5388C5.25006 47.5123 2.64403 58.1341 6.15463 68.4209C8.59912 75.5633 13.822 82.025 17.0633 88.9513C28.392 113.22 14.2312 139.078 -4.6033 158.463C-13.4229 167.691 -23.3732 176.097 -30.6098 186.06C-37.8463 196.023 -42.24 208.06 -38.8263 219.827C-35.4126 231.594 -24.8916 241.373 -12.9814 249.002C11.1944 264.432 41.196 272.191 70.6484 278.382C135.842 292.083 202.253 299.809 268.491 307.503C293.001 310.355 317.618 313.208 342.149 313.143C355.761 313.143 369.986 311.976 380.744 305.871C394.399 298.113 399.762 282.412 393.236 269.262C382.295 247.219 344.777 236.738 338.24 213.809C334.622 201.199 341.966 188.794 351.27 178.918C371.214 157.739 401.959 141.099 407.268 114.355C410.929 95.9857 400.225 75.5417 380.841 63.8069C360.51 51.5103 330.336 48.3335 312.191 61.2244C293.528 74.4935 263.828 76.3413 239.125 71.9651Z" fill="#6C63FF"/>
<path d="M79.467 239.6H78.6055V247.628H79.467V239.6Z" fill="#F2F2F2"/>
<path d="M253.136 13.3867C253.136 13.3867 216.749 11.1608 221.035 36.759C220.81 38.0562 221.002 39.3916 221.582 40.5724C222.163 41.7532 223.102 42.7184 224.265 43.3287C224.265 43.3287 224.33 41.4377 228.002 42.0753C229.307 42.2967 230.634 42.362 231.954 42.2697C233.734 42.1488 235.427 41.4511 236.778 40.2816C236.778 40.2816 247.009 36.0458 250.993 19.2649C250.993 19.2649 253.933 15.6019 253.815 14.6618L247.676 17.2983C247.676 17.2983 249.83 21.7394 248.107 25.4348C248.107 25.4348 247.902 17.4496 246.729 17.6225C246.481 17.6225 243.498 19.1676 243.498 19.1676C243.498 19.1676 247.116 26.9152 244.381 32.534C244.381 32.534 245.458 22.9928 242.378 19.7296L238.071 22.258C238.071 22.258 242.303 30.2541 239.438 36.7806C239.438 36.7806 240.171 26.7747 237.166 22.8739L233.246 25.9427C233.246 25.9427 237.22 33.8307 234.797 39.2442C234.797 39.2442 234.485 27.5851 232.396 26.7099C232.396 26.7099 228.982 29.7462 228.454 31.0321C228.454 31.0321 231.168 36.759 229.531 39.7737C229.531 39.7737 228.454 32.0154 227.657 31.9721C227.657 31.9721 224.244 37.1156 223.888 40.6165C224.057 37.3575 225.07 34.199 226.828 31.4535C224.86 31.8252 223.044 32.7682 221.605 34.1656C221.605 34.1656 222.133 30.535 227.647 30.2108C227.647 30.2108 230.468 26.3101 231.222 26.0724C231.222 26.0724 225.719 25.6077 222.37 27.0989C222.37 27.0989 225.32 23.6627 232.234 25.2295L236.132 22.0635C236.132 22.0635 228.874 21.0586 225.794 22.1608C225.794 22.1608 229.337 19.1244 237.166 21.3396L241.377 18.8111C241.377 18.8111 235.195 17.4712 231.512 17.9467C231.512 17.9467 235.4 15.8396 242.615 18.1195L245.641 16.7688C245.641 16.7688 241.107 15.872 239.783 15.6883C238.458 15.5046 238.383 15.1804 238.383 15.1804C241.252 14.6972 244.198 15.0265 246.89 16.1313C246.89 16.1313 253.244 13.7649 253.136 13.3867Z" fill="#7A2AE8"/>
<path d="M180.909 8.48234C180.909 8.48234 164.476 7.48824 166.403 19.0501C166.303 19.6359 166.389 20.2387 166.65 20.7724C166.911 21.306 167.334 21.7433 167.857 22.0216C167.857 22.0216 167.857 21.1464 169.548 21.4489C170.138 21.5533 170.738 21.5823 171.335 21.5353C172.13 21.4723 172.884 21.1584 173.489 20.6385C173.489 20.6385 178.109 18.7151 179.95 11.1405C179.95 11.1405 181.275 9.48725 181.243 9.05503L178.464 10.2436C178.99 11.4033 179.059 12.7196 178.658 13.9283C178.658 13.9283 178.572 10.3193 178.033 10.4057C177.926 10.4057 176.601 11.0972 176.601 11.0972C176.601 11.0972 178.227 14.5982 176.989 17.1483C176.989 17.1483 177.463 12.8261 176.084 11.3566L174.135 12.502C174.135 12.502 176.041 16.111 174.749 19.0609C174.749 19.0609 175.083 14.5334 173.672 12.7721L171.906 14.166C171.906 14.166 173.694 17.721 172.606 20.1739C172.606 20.1739 172.455 14.9008 171.529 14.501C170.857 15.0708 170.257 15.7202 169.742 16.4352C169.742 16.4352 170.969 19.0393 170.215 20.39C170.215 20.39 169.742 16.8782 169.343 16.8674C168.543 18.0523 167.966 19.3744 167.642 20.7682C167.72 19.2955 168.18 17.8688 168.977 16.6297C168.085 16.8 167.261 17.2281 166.608 17.8615C166.608 17.8615 166.856 16.219 169.354 16.0678C169.821 15.3864 170.363 14.7594 170.969 14.1984C169.62 14.0851 168.262 14.243 166.974 14.6631C166.974 14.6631 168.299 13.1179 171.432 13.7986L173.155 12.3615C171.608 12.1321 170.034 12.1503 168.492 12.4155C168.492 12.4155 170.14 11.0108 173.629 12.0914L175.524 10.9028C174.061 10.5792 172.563 10.4484 171.066 10.5138C171.066 10.5138 172.821 9.56287 176.084 10.5894L177.441 9.9735C177.441 9.9735 175.395 9.57367 174.803 9.50884C174.211 9.44401 174.168 9.28193 174.168 9.28193C175.464 9.06657 176.795 9.21617 178.012 9.71415C179.01 9.3858 179.979 8.97375 180.909 8.48234Z" fill="#7A2AE8"/>
<path d="M118.905 124.75C118.905 124.75 116.224 119.445 116.59 117.867C116.956 116.29 114.706 112.918 114.706 112.918L114.846 107.332C114.846 107.332 114.533 107.905 112.918 108.413C112.78 108.232 112.633 108.059 112.477 107.894C111.894 107.278 111.244 106.731 110.538 106.262L107.695 100.103L104.938 95.8674C104.938 95.8674 100.631 87.0069 96.1081 85.062L95.4081 83.6788C95.423 83.6584 95.431 83.6338 95.431 83.6086C95.431 83.5833 95.423 83.5587 95.4081 83.5383L94.6866 82.1336C94.6671 82.1169 94.6423 82.1077 94.6166 82.1077C94.5909 82.1077 94.5661 82.1169 94.5466 82.1336L93.8574 80.783C93.5956 79.0374 92.9116 77.3827 91.8652 75.9637L91.6498 75.672H92.7267C93.7163 75.7567 94.6994 75.446 95.462 74.8075C95.6984 74.5359 95.8713 74.2147 95.9681 73.8674C96.0523 73.5964 96.11 73.3178 96.1404 73.0355V72.2034C96.13 72.1085 96.1119 72.0145 96.0865 71.9225C96.0967 71.8872 96.0967 71.8497 96.0865 71.8144C96.0642 71.7012 96.0355 71.5894 96.0004 71.4795C95.9958 71.4581 95.9958 71.436 96.0004 71.4146L95.8712 71.0689C95.8712 70.9608 95.7635 70.8528 95.6989 70.7447C95.6778 70.6992 95.6526 70.6558 95.6235 70.615C94.7364 69.4657 93.5572 68.5774 92.2098 68.0433C91.0052 67.4073 89.7687 66.8338 88.5054 66.3252C83.812 64.5656 78.6312 64.6389 73.9892 66.5305C73.5327 66.709 73.0989 66.9411 72.6969 67.2221C72.1395 67.696 71.663 68.2581 71.2862 68.8861L69.0786 72.1278C68.77 72.526 68.5264 72.971 68.3571 73.4461C67.9479 75.0021 69.2401 76.558 69.1001 78.1681C69.0248 78.9569 68.594 79.6916 68.5186 80.4912C68.5127 81.5332 68.8001 82.5558 69.3479 83.4411L72.5031 89.7191C72.3416 90.5511 72.1585 91.394 71.9539 92.2152C71.072 92.9818 70.3634 93.9285 69.8755 94.9921C69.5837 95.175 69.3341 95.4181 69.1432 95.7053L66.0957 98.5364C66.0957 98.5364 60.8837 99.887 59.796 101.616C59.796 101.616 51.6118 101.259 51.6871 112.724C51.6871 112.724 51.321 117.046 51.1164 117.597C50.9118 118.148 51.1164 123.983 51.1164 123.983L51.0195 135.74C50.857 138.557 50.857 141.382 51.0195 144.2C51.3318 146.426 51.6979 154.887 51.6979 154.887C51.6979 154.887 53.6471 163.131 52.9256 166.071C52.2041 169.01 52.9256 175.039 54.0671 175.061C54.2824 175.515 54.5301 175.731 54.7993 175.601L55.1654 175.471V182.495C55.1654 182.495 53.7547 192.339 55.3378 194.208C54.3618 195.718 53.4945 197.296 52.7425 198.93L41.6615 198.336L40.2508 198.735L38.9585 199.092L38.1832 217.17H38.4955V217.732L39.2277 217.786L38.2047 235.982L53.5393 237.246C53.1006 238.423 52.5067 239.535 51.7733 240.553C51.2026 240.834 49.9642 239.98 49.6734 240.337C49.3892 240.603 49.0439 240.794 48.6682 240.894C48.2924 240.994 47.8979 240.999 47.5197 240.909C46.5074 240.693 45.8505 241.839 45.8505 241.839C45.8505 241.839 46.0013 241.968 46.2274 242.206C44.5265 242.197 42.8526 242.633 41.3707 243.47C40.8646 243.729 40.5415 243.913 40.5415 243.913H37.5586L39.1955 254.438L40.3584 255.227L40.6384 263.514C40.6384 263.514 45.2259 277.842 47.3797 277.745C47.5166 277.74 47.6509 277.706 47.7736 277.644C47.8962 277.583 48.0042 277.496 48.0904 277.389C49.2318 276.07 48.4457 271.532 48.4457 271.532V263.968C48.4457 263.968 50.1795 263.212 49.9857 262.628C49.7918 262.045 52.7856 255.778 53.0548 255.205C53.0548 254.557 54.3578 253.843 54.2824 253.552C54.207 253.26 57.513 251.477 57.7069 249.899C57.9007 248.322 60.0975 249.175 60.0975 249.175L62.8435 246.009C62.7869 248.44 62.9563 250.871 63.3497 253.271C64.2657 256.014 64.8725 258.852 65.1588 261.731C65.1588 261.731 64.3619 265.675 65.1588 266.961C65.8723 267.832 66.6856 268.615 67.5818 269.295C66.7634 271.802 66.8818 277.118 66.8818 277.118V280.176L72.9661 281.894C72.9661 281.894 73.1492 280.36 73.44 280.36C73.7307 280.36 77.5967 283.321 77.5967 283.321C77.5967 283.321 92.4683 283.515 96.2373 283.321C97.6588 283.256 98.0464 282.64 97.8311 281.894C97.4319 281.089 96.8388 280.397 96.1054 279.88C95.372 279.363 94.5216 279.037 93.6313 278.934C90.7345 278.739 87.0623 275.692 87.0623 275.692C87.0623 275.692 87.3423 275.022 85.8024 274.071C84.7255 273.412 81.7965 270.754 79.9766 269.198C80.0653 269.08 80.148 268.957 80.2242 268.831C80.2242 268.831 77.769 265.405 78.2751 263.893C78.5295 262.656 78.4552 261.374 78.0597 260.175C77.3663 258.104 76.9041 255.963 76.6814 253.789C76.6814 252.428 76.4767 244.68 76.326 239.18L77.5967 239.288V238.737H78.1567L83.541 239.234L83.3795 233.453C85.3432 232.669 87.2318 231.707 89.0223 230.579C90.6829 229.275 92.6681 228.453 94.762 228.202C94.762 228.202 100.922 224.906 101.859 223.545C102.795 222.183 102.709 212.286 102.709 212.286L102.203 191.085C102.203 191.085 101.772 180.842 100.9 178.616C100.588 177.794 99.8233 175.05 98.9295 171.916C99.4254 171.868 99.9257 171.889 100.416 171.981C100.416 172.748 100.416 173.278 100.416 173.451C100.416 174.672 102.149 175.709 102.149 175.709L100.922 148.242V129.548C104.712 130.758 113.844 131.136 113.844 131.136C120.499 130.78 118.905 124.75 118.905 124.75ZM83.1318 101.184C83.2697 100.455 83.4458 99.7332 83.6595 99.0226L83.1318 101.184ZM58.2345 195.256C60.4852 195.624 63.0805 195.515 63.2743 195.083C63.2743 195.083 63.2743 194.964 63.3605 194.867L63.5651 195.245L63.3497 199.384V199.481L55.9408 199.081C56.1798 197.555 57.0028 196.183 58.2345 195.256ZM82.9164 216.132L82.7226 209.433C83.0564 208.201 83.3472 207.077 83.6056 206.116C83.7241 206.915 83.821 207.65 83.8856 208.277C84.5856 214.684 83.5625 215.916 82.9164 216.132ZM103.991 115.641C103.56 115.804 101.945 114.788 100.416 113.729C100.416 113.534 100.416 113.34 100.416 113.156C100.631 108.78 93.5344 106.057 91.3591 105.592C90.8356 105.452 90.327 105.26 89.8407 105.02C88.6857 104.44 87.5607 103.801 86.4701 103.107V103.021C86.4701 103.021 83.6702 101.238 83.6164 99.0226C84.2546 97.0038 85.0578 95.0414 86.0178 93.1552L86.1901 92.8203C87.5139 92.406 88.7485 91.7462 89.8299 90.8752C90.2714 96.5913 98.5095 101.508 98.5095 101.508L99.3925 102.934L99.5971 103.28C99.1556 103.539 98.9403 103.755 99.091 103.874C100.168 105.291 101.095 106.815 101.859 108.423L102.149 108.953C102.149 108.953 103.495 112.627 104.303 115.706C104.198 115.674 104.085 115.674 103.98 115.706L103.991 115.641Z" fill="url(#paint0_linear)"/>
<path d="M107.166 100.859L107.069 100.988L106.746 101.431L100.403 105.926L99.0679 103.711L98.2172 102.285C98.2172 102.285 85.5963 94.721 91.0237 87.3517C96.4511 79.9823 104.474 96.6444 104.474 96.6444L107.166 100.859Z" fill="#FFC5D3"/>
<path d="M94.2866 82.9206C94.2956 82.9111 94.3065 82.9036 94.3185 82.8984C94.3305 82.8933 94.3435 82.8906 94.3566 82.8906C94.3696 82.8906 94.3826 82.8933 94.3946 82.8984C94.4066 82.9036 94.4175 82.9111 94.4265 82.9206L95.1265 84.3253C95.1462 84.3455 95.1573 84.3726 95.1573 84.4009C95.1573 84.4292 95.1462 84.4563 95.1265 84.4765C95.1053 84.4941 95.0786 84.5037 95.0511 84.5037C95.0236 84.5037 94.997 84.4941 94.9757 84.4765L94.2758 83.0719C94.2574 83.0503 94.2483 83.0223 94.2503 82.994C94.2523 82.9657 94.2653 82.9393 94.2866 82.9206Z" fill="#3A3768"/>
<path d="M87.2755 84.9673C87.2595 84.9353 87.2227 84.9214 87.1935 84.9362C87.1643 84.9509 87.1536 84.9888 87.1697 85.0208L87.3731 85.4261C87.3891 85.4581 87.4258 85.472 87.455 85.4573C87.4842 85.4425 87.4949 85.4046 87.4789 85.3726L87.2755 84.9673Z" fill="#3A3768"/>
<path d="M87.6817 85.8927C87.6867 85.8859 87.6932 85.8805 87.7007 85.8768C87.7082 85.873 87.7164 85.8711 87.7248 85.8711C87.7331 85.8711 87.7414 85.873 87.7489 85.8768C87.7564 85.8805 87.7629 85.8859 87.7679 85.8927L88.1663 86.6815C88.1777 86.6951 88.1839 86.7123 88.1839 86.7301C88.1839 86.7479 88.1777 86.7651 88.1663 86.7787C88.1545 86.7893 88.1392 86.7952 88.1233 86.7952C88.1074 86.7952 88.092 86.7893 88.0802 86.7787L87.6817 85.9791C87.675 85.9741 87.6696 85.9676 87.6659 85.9601C87.6621 85.9526 87.6602 85.9443 87.6602 85.9359C87.6602 85.9275 87.6621 85.9192 87.6659 85.9117C87.6696 85.9042 87.675 85.8977 87.6817 85.8927Z" fill="#3A3768"/>
<path d="M88.3788 87.1617C88.3628 87.1297 88.324 87.1168 88.2921 87.1329C88.2602 87.1491 88.2474 87.188 88.2634 87.22L88.6703 88.0306C88.6863 88.0626 88.7252 88.0755 88.7571 88.0594C88.7889 88.0433 88.8017 88.0043 88.7857 87.9723L88.3788 87.1617Z" fill="#3A3768"/>
<path d="M92.2239 80.2121L86.8955 82.9047C86.5822 83.063 86.4561 83.4464 86.6139 83.7608L92.6539 95.7953C92.8117 96.1098 93.1937 96.2364 93.5071 96.078L98.8355 93.3854C99.1489 93.2271 99.2749 92.8438 99.1171 92.5293L93.0771 80.4948C92.9193 80.1803 92.5373 80.0538 92.2239 80.2121Z" fill="#3A3768"/>
<path d="M91.529 80.9755C91.4677 81.0058 91.4209 81.0591 91.3987 81.1239C91.3765 81.1887 91.3808 81.2597 91.4106 81.3213C91.4272 81.3509 91.4376 81.3835 91.4411 81.4173C91.4447 81.451 91.4414 81.4852 91.4313 81.5176C91.4212 81.55 91.4046 81.5799 91.3825 81.6056C91.3604 81.6314 91.3333 81.6523 91.3028 81.6671L88.5568 83.0502C88.4967 83.0809 88.427 83.0867 88.3626 83.0665C88.2982 83.0463 88.2442 83.0017 88.2122 82.9421C88.18 82.8799 88.1249 82.8327 88.0586 82.8105C87.9922 82.7883 87.9199 82.7929 87.8569 82.8233L87.3292 83.0934C87.2129 83.1516 87.124 83.2533 87.0817 83.3766C87.0393 83.4999 87.0471 83.6349 87.1031 83.7526L92.9181 95.3468C92.98 95.4624 93.0842 95.5495 93.2087 95.5898C93.3331 95.6301 93.4682 95.6205 93.5858 95.5629L98.3671 93.1533C98.4823 93.0912 98.5691 92.9867 98.6092 92.8618C98.6494 92.7369 98.6398 92.6014 98.5825 92.4834L92.7566 80.8891C92.728 80.8299 92.6879 80.7771 92.6387 80.7336C92.5895 80.6901 92.5322 80.6567 92.4701 80.6356C92.408 80.6145 92.3423 80.606 92.2768 80.6106C92.2114 80.6151 92.1476 80.6327 92.089 80.6622L91.529 80.9755Z" fill="#7A2AE8"/>
<path d="M89.2241 82.2185L89.9456 81.8511C89.9659 81.8362 89.9904 81.8281 90.0156 81.8281C90.0407 81.8281 90.0653 81.8362 90.0856 81.8511C90.1023 81.8706 90.1115 81.8956 90.1115 81.9213C90.1115 81.9471 90.1023 81.972 90.0856 81.9916L89.3749 82.359C89.3546 82.3739 89.33 82.3819 89.3049 82.3819C89.2797 82.3819 89.2552 82.3739 89.2349 82.359C89.2247 82.3506 89.2163 82.3403 89.2102 82.3286C89.2041 82.3169 89.2005 82.3042 89.1995 82.291C89.1985 82.2779 89.2001 82.2647 89.2044 82.2522C89.2086 82.2397 89.2153 82.2283 89.2241 82.2185Z" fill="#E6E8EC"/>
<path d="M90.3255 81.894C90.3909 81.894 90.4439 81.8408 90.4439 81.7751C90.4439 81.7095 90.3909 81.6562 90.3255 81.6562C90.2601 81.6562 90.207 81.7095 90.207 81.7751C90.207 81.8408 90.2601 81.894 90.3255 81.894Z" fill="#E6E8EC"/>
<path d="M95.6323 125.43L93.8555 173.352C93.8555 173.352 99.8321 171.353 100.758 172.855C101.684 174.357 99.7675 148.856 99.7675 148.856L95.6323 125.43Z" fill="#5F5570"/>
<path opacity="0.15" d="M95.6323 125.43L93.8555 173.352C93.8555 173.352 99.8321 171.353 100.758 172.855C101.684 174.357 99.7675 148.856 99.7675 148.856L95.6323 125.43Z" fill="black"/>
<path d="M95.9229 283.373C92.2185 283.568 77.6161 283.373 77.6161 283.373C77.6161 283.373 73.8147 280.423 73.5347 280.423C73.2547 280.423 73.0608 281.947 73.0608 281.947L67.0842 280.229V277.193C67.0842 277.193 66.8904 268.548 68.6888 268.138C70.4871 267.727 78.4668 268.138 78.4668 268.138C78.7575 268.04 84.1634 273.184 85.6818 274.135C87.2002 275.086 86.9095 275.755 86.9095 275.755C86.9095 275.755 90.517 278.803 93.3707 278.997C94.2505 279.099 95.0901 279.423 95.8114 279.939C96.5326 280.455 97.1118 281.146 97.4951 281.947C97.6997 282.693 97.3121 283.309 95.9229 283.373Z" fill="#BC8487"/>
<path opacity="0.1" d="M95.9207 283.373C92.2162 283.567 77.6139 283.373 77.6139 283.373C77.6139 283.373 73.8125 280.423 73.5325 280.423C73.2525 280.423 73.0587 281.946 73.0587 281.946L67.082 280.228V277.246L72.671 279.278L77.14 281.946H97.4929C97.6975 282.692 97.3099 283.308 95.9207 283.373Z" fill="black"/>
<g opacity="0.1">
<path d="M79.3047 278.9C79.3047 278.9 83.8599 274.578 86.8966 275.756L79.3047 278.9Z" fill="black"/>
<path d="M79.3047 278.9C79.3047 278.9 83.8599 274.578 86.8966 275.756" stroke="black" stroke-width="0.264402" stroke-miterlimit="10"/>
</g>
<path d="M50.455 262.779C50.6488 263.341 48.9366 264.108 48.9366 264.108V271.672C48.9366 271.672 49.7119 276.188 48.592 277.507C48.508 277.613 48.4019 277.7 48.281 277.762C48.1602 277.823 48.0274 277.858 47.892 277.863C45.8029 277.96 41.2477 263.676 41.2477 263.676L40.9677 255.42L39.8262 254.631L38.2109 244.15H41.1616C41.1616 244.15 41.4631 243.966 41.9692 243.707C43.3907 242.972 46.3736 241.708 47.9889 242.918L53.4917 255.355C53.4917 255.355 50.2719 262.238 50.455 262.779Z" fill="#BC8487"/>
<path opacity="0.1" d="M48.592 277.497C48.508 277.603 48.4019 277.691 48.281 277.752C48.1602 277.814 48.0274 277.848 47.892 277.853C45.8029 277.951 41.2477 263.666 41.2477 263.666L40.9677 255.41L39.8262 254.622L38.2109 244.14H41.1616C41.1616 244.14 41.4631 243.957 41.9692 243.697L42.68 254.427L43.0569 263.666C43.0569 263.666 46.6321 273.726 48.592 277.497Z" fill="black"/>
<path d="M101.403 223.781C100.477 225.143 94.425 228.428 94.425 228.428C92.3842 228.706 90.4606 229.548 88.8684 230.859C87.3284 232.037 81.9548 234.381 77.1304 236.381C72.6184 238.239 68.5909 239.784 68.5909 239.784L63.9388 245.187L60.3959 249.325C60.3959 249.325 58.2421 248.472 58.0483 250.039C57.8544 251.605 54.6346 253.399 54.71 253.68C54.7854 253.961 53.4931 254.685 53.4931 255.322C53.4931 255.96 48.7226 250.687 48.798 247.467C48.7682 246.451 48.5389 245.45 48.1231 244.523C47.7073 243.596 47.1133 242.76 46.375 242.064C46.375 242.064 47.0211 240.919 48.0119 241.135C48.3898 241.23 48.7856 241.227 49.1623 241.127C49.5389 241.027 49.8841 240.833 50.1656 240.562C50.4456 240.206 51.6517 241.059 52.2224 240.778C52.7931 240.497 55.0761 234.846 55.0761 234.846L63.9496 228.871L81.5995 216.985L82.4179 216.444C82.4179 216.444 84.7655 217.525 83.8071 208.675C83.624 206.957 83.3117 204.872 82.8379 202.343C79.9195 186.697 90.376 184.914 90.376 184.914L99.5617 187.983L101.715 191.408L102.211 212.533C102.211 212.533 102.297 222.431 101.403 223.781Z" fill="#433A59"/>
<path opacity="0.1" d="M77.056 233.786C77.056 233.786 77.056 234.802 77.1314 236.379C72.6193 238.238 68.5918 239.783 68.5918 239.783L63.9398 245.186C63.8644 240.691 63.9398 234.845 63.9398 228.859L81.5897 216.973C79.4144 225.12 77.056 233.786 77.056 233.786Z" fill="black"/>
<path opacity="0.1" d="M101.758 191.462L87.9418 191.721C87.9418 191.721 85.5296 201.23 85.1742 203.229C85.0881 203.715 84.5497 205.812 83.7851 208.708C83.602 206.989 83.2897 204.904 82.8267 202.365C79.9084 186.729 90.3648 184.936 90.3648 184.936L99.5505 188.015L101.758 191.462Z" fill="black"/>
<path d="M65.3815 165.53L63.6047 199.805C63.6047 199.805 62.3232 250.158 63.6047 253.454C64.5055 256.189 65.1013 259.015 65.3815 261.882C65.3815 261.882 64.5954 265.805 65.3815 267.09C66.1676 268.376 68.6121 269.803 68.6121 270.516C68.6121 271.229 76.2256 275.086 80.21 268.949C80.21 268.949 77.7871 265.524 78.2932 264.022C78.5402 262.785 78.466 261.505 78.0779 260.305C77.3941 258.24 76.9391 256.105 76.721 253.94C76.721 251.779 76.2256 233.799 76.2256 233.799C76.2256 233.799 83.9791 205.229 84.3345 203.23C84.6898 201.231 87.1128 191.733 87.1128 191.733L101.758 191.463C101.758 191.463 101.327 181.252 100.477 179.037C99.626 176.821 95.4262 160.613 95.4262 160.613L65.3815 165.53Z" fill="#433A59"/>
<path d="M40.9183 199.113L39.6368 199.481L39.5938 200.745L77.7473 201.242V200.745L40.9183 199.113Z" fill="#7B728F"/>
<path d="M85.9153 93.9637C80.3694 105.266 83.8154 107.633 84.3646 107.924C83.1908 107.373 67.8992 100.166 69.913 98.3399C71.216 97.1513 72.3359 91.9646 72.9928 88.2475C73.3912 86.0324 73.6174 84.3359 73.6174 84.3359L89.652 87.2966C88.1013 89.8035 86.8629 92.0511 85.9153 93.9637Z" fill="#FFC5D3"/>
<path opacity="0.1" d="M107.078 100.988L106.755 101.431L100.402 105.926L99.0664 103.711C101.609 102.503 104.224 101.453 106.895 100.566L107.078 100.988Z" fill="black"/>
<path d="M112.937 111.297C112.366 113.296 102.75 111.297 102.75 111.297L101.759 109.72L101.49 109.19C100.742 107.59 99.8285 106.072 98.7653 104.663C97.9899 104.014 107.165 100.881 107.165 100.881L109.986 107.018C110.679 107.487 111.318 108.03 111.892 108.639C112.272 108.961 112.566 109.372 112.748 109.836C112.931 110.3 112.995 110.802 112.937 111.297Z" fill="#E5E8EF"/>
<path d="M96.9883 112.215C96.9883 112.215 102.685 116.721 103.536 116.397C104.386 116.072 118.203 125.43 118.203 125.43C118.203 125.43 119.764 131.427 113.292 131.784C113.292 131.784 99.5512 131.211 98.9805 129.212C98.4097 127.213 96.9883 112.215 96.9883 112.215Z" fill="#5F5570"/>
<path opacity="0.1" d="M81.4693 103.15L75.2773 109.633L83.9893 165L87.4137 163.001C87.4137 163.001 96.2333 166.934 96.944 163.293C97.6548 159.651 97.4609 145.291 97.4609 145.291L96.3087 119.358C96.3087 119.358 92.2488 110.281 92.2488 110C92.2488 109.719 86.4014 105.278 86.4014 105.278L83.6339 103.117L81.4693 103.15Z" fill="black"/>
<path d="M81.4693 102.295L75.2773 108.724L83.9893 164.146L87.4137 162.147C87.4137 162.147 96.2333 166.069 96.944 162.427C97.6548 158.786 97.4609 144.436 97.4609 144.436L96.3087 118.503C96.3087 118.503 92.2488 109.437 92.2488 109.146C92.2488 108.854 86.4014 104.435 86.4014 104.435L83.6339 102.273L81.4693 102.295Z" fill="#E5E8EF"/>
<path opacity="0.1" d="M81.8334 103.224L80.1211 106.714L81.8334 108.529C81.8334 108.529 87.95 120.934 86.7439 128.293L88.0146 152.562L92.139 156.625L95.3697 152.832L93.7974 130.832C93.7974 130.832 89.5976 112.69 85.1824 107.06L83.9871 101.992L81.8334 103.224Z" fill="black"/>
<path d="M81.8333 102.653L80.1211 106.154L81.8333 107.958C81.8333 107.958 87.95 120.363 86.7439 127.721L88.0254 151.936L92.1498 155.999L95.3804 152.207L93.8081 130.207C93.8081 130.207 89.6083 112.064 85.1932 106.435L83.9871 101.432L81.8333 102.653Z" fill="#BC8487"/>
<path opacity="0.1" d="M89.6553 87.2977C88.1046 89.8046 86.877 92.0197 85.9186 93.9647C84.9123 94.2669 83.8675 94.4198 82.8172 94.4185C79.2958 94.4185 77.2713 91.9765 75.2791 89.3832C74.8268 88.7889 73.3299 88.9293 72.9961 88.2378C73.3945 86.0226 73.6207 84.3262 73.6207 84.3262L89.6553 87.2977Z" fill="black"/>
<path d="M93.6865 83.1805C93.6816 85.7843 92.7509 88.3009 91.0618 90.2776C89.3727 92.2543 87.0361 93.5613 84.4723 93.9636C81.9085 94.3659 79.2858 93.8371 77.076 92.4722C74.8661 91.1073 73.2141 88.9959 72.4172 86.5179C71.6203 84.04 71.7308 81.3579 72.7288 78.9544C73.7267 76.5508 75.5466 74.5835 77.8612 73.4062C80.1758 72.2289 82.833 71.919 85.355 72.5322C87.877 73.1454 90.0981 74.6415 91.6189 76.7513C92.9671 78.6217 93.6908 80.8721 93.6865 83.1805Z" fill="#FFC5D3"/>
<path opacity="0.1" d="M79.339 107.578L70.3686 96.7729C70.3686 96.7729 69.5395 96.4379 72.3393 93.5312C72.3393 93.5312 82.6127 101.571 83.248 102.932C83.8834 104.294 79.339 107.578 79.339 107.578Z" fill="black"/>
<path d="M79.0499 107.007L70.0796 96.1479C70.0796 96.1479 69.2504 95.8129 72.0502 92.9062C72.0502 92.9062 82.3344 100.946 82.9697 102.318C83.6051 103.69 79.0499 107.007 79.0499 107.007Z" fill="#E5E8EF"/>
<path d="M101.757 176.097C101.757 176.097 100.045 175.071 100.045 173.86C100.045 172.65 99.1938 155.491 99.1938 155.491C99.1938 155.491 97.9446 145.258 96.6308 137.122C95.8663 132.324 95.0694 128.261 94.4771 127.462C92.991 125.538 93.271 116.105 83.9453 102.328C85.7672 103.61 87.67 104.773 89.6419 105.807C90.1188 106.052 90.6207 106.244 91.1388 106.38C93.2926 106.877 100.249 109.622 100.034 113.944C99.8184 118.266 100.54 128.294 100.54 128.294V148.824L101.757 176.097Z" fill="#5F5570"/>
<path opacity="0.1" d="M112.939 111.296C112.369 113.295 102.752 111.296 102.752 111.296L101.761 109.718L101.492 109.189C107.07 109.588 110.183 109.189 111.906 108.67C112.278 108.99 112.567 109.396 112.748 109.854C112.928 110.312 112.994 110.807 112.939 111.296Z" fill="black"/>
<path d="M101.758 109.719C101.758 109.719 104.741 118.007 104.321 120.082C103.901 122.157 111.223 130.293 111.223 130.293L118.202 125.431C118.202 125.431 115.563 120.147 115.919 118.58C116.274 117.013 114.066 113.653 114.066 113.653L114.217 108.088C114.217 108.088 112.936 110.497 101.758 109.719Z" fill="#5F5570"/>
<path opacity="0.1" d="M91.6598 76.7497L86.2755 76.955C85.7489 76.9544 85.2244 77.0197 84.714 77.1495C82.7756 77.7546 81.8926 79.8184 81.8172 81.6661C81.7418 83.5139 80.6757 85.5993 78.5866 85.7614C78.3799 85.7958 78.1679 85.7494 77.9943 85.6317C77.864 85.4904 77.7779 85.3139 77.7467 85.1239C77.4532 84.0442 76.9955 83.0164 76.3898 82.0767C75.9646 82.19 75.5791 82.4197 75.2767 82.7404C74.9743 83.061 74.7668 83.4598 74.6775 83.8921C74.5103 84.7602 74.456 85.6464 74.516 86.5286C74.5158 87.6494 74.4076 88.7675 74.193 89.8675C72.4265 87.5605 71.6457 84.6439 72.0224 81.7593C72.399 78.8747 73.9022 76.2584 76.2014 74.4859C78.5005 72.7134 81.4071 71.9299 84.2819 72.3078C87.1567 72.6858 89.7641 74.1941 91.5306 76.5011L91.7244 76.7497H91.6598Z" fill="black"/>
<path d="M84.3975 76.9237C84.9069 76.7888 85.4322 76.7233 85.959 76.7293L92.5279 76.4808C93.0082 76.5262 93.4928 76.475 93.9532 76.3303C94.4136 76.1855 94.8406 75.9502 95.2093 75.6379C95.4457 75.3663 95.6186 75.0451 95.7154 74.6978C95.8845 74.1462 95.9336 73.5645 95.8593 72.9922C95.7849 72.4199 95.589 71.8703 95.2847 71.3805C94.4181 70.2332 93.2566 69.3442 91.9248 68.8088C90.7432 68.171 89.5282 67.5975 88.285 67.0908C83.6791 65.339 78.5812 65.4124 74.0273 67.2961C73.5779 67.4709 73.1513 67.6994 72.7566 67.9768C72.2087 68.4542 71.7398 69.016 71.3674 69.6409L69.2137 72.8825C68.9135 73.2794 68.684 73.7254 68.5352 74.2007C68.126 75.7567 69.386 77.3128 69.2567 78.9012C69.1813 79.7008 68.7613 80.4247 68.686 81.2243C68.6814 82.2579 68.9648 83.2722 69.5044 84.1526L73.3058 91.8461C73.9214 90.0525 74.2308 88.1675 74.2211 86.2705C74.1562 85.392 74.2105 84.5086 74.3826 83.6447C74.4758 83.213 74.6843 82.8149 74.986 82.4931C75.2877 82.1714 75.671 81.9382 76.0948 81.8187C76.7007 82.7621 77.1583 83.7935 77.4517 84.8766C77.482 85.0659 77.5726 85.2404 77.7101 85.3736C77.7924 85.4356 77.8864 85.4801 77.9865 85.5042C78.0865 85.5284 78.1903 85.5317 78.2917 85.5141C80.3808 85.352 81.4254 83.2881 81.5223 81.4188C81.6192 79.5495 82.4592 77.464 84.3975 76.9237Z" fill="#8F7080"/>
<path d="M39.6367 199.481L42.2966 198.725L82.3993 200.907L77.9841 201.48L39.6367 199.481Z" fill="#7B728F"/>
<path opacity="0.1" d="M39.6367 199.481L42.2966 198.725L82.3993 200.907L77.9841 201.48L39.6367 199.481Z" fill="black"/>
<path d="M83.4873 239.482L78.1999 238.985L76.3477 238.812V209.291L76.8322 202.43L76.9399 200.906H82.3997L83.4873 239.482Z" fill="#7B728F"/>
<path opacity="0.1" d="M82.0443 238.434L77.823 237.959L76.3477 237.796V209.81L76.7353 203.305L76.8215 201.857H81.172L82.0443 238.434Z" fill="black"/>
<path d="M53.1055 199.479C53.1055 199.479 55.733 193.677 56.8422 193.504C57.8844 193.405 58.9337 193.405 59.9759 193.504L59.7929 195.179C59.7929 195.179 57.0899 195.395 56.2391 199.933L53.1055 199.479Z" fill="#7B728F"/>
<path opacity="0.1" d="M53.1055 199.479C53.1055 199.479 55.733 193.677 56.8422 193.504C57.8844 193.405 58.9337 193.405 59.9759 193.504L59.7929 195.179C59.7929 195.179 57.0899 195.395 56.2391 199.933L53.1055 199.479Z" fill="black"/>
<path d="M63.3156 192.9C63.3156 192.9 70.4015 196.434 69.4753 200.572L65.6309 200.356C65.6309 200.356 63.7787 194.186 62.3249 193.873C60.8711 193.559 63.3156 192.9 63.3156 192.9Z" fill="#7B728F"/>
<path d="M89.6564 136.939V137.144L89.5164 160.916C89.5164 160.916 85.8874 180.907 84.8859 181.695C83.8844 182.484 62.0346 180.334 62.0346 180.334L52.149 113.416C52.0736 101.983 60.1178 102.34 60.1178 102.34C61.1947 100.633 66.3098 99.2712 66.3098 99.2712L69.1527 96.4834L69.2497 96.3537C69.4371 96.0703 69.6832 95.8307 69.9712 95.6514C70.5527 95.3056 70.9296 95.7594 71.1342 96.2025C71.2323 96.4099 71.3081 96.6272 71.3604 96.8508C82.9152 105.355 89.6564 136.939 89.6564 136.939Z" fill="#5F5570"/>
<path opacity="0.1" d="M89.3739 137.218V137.434C85.7879 130.865 72.004 105.969 68.2349 104.726L69.678 103.732C69.678 103.732 70.6471 103.159 68.8703 102.587C68.8703 102.587 66.092 102.943 66.0273 99.5827L68.9564 96.6761L69.678 95.9629L70.8517 96.514C70.9498 96.7214 71.0256 96.9387 71.0779 97.1623C82.6112 105.645 89.3739 137.218 89.3739 137.218Z" fill="black"/>
<path d="M89.6552 136.937V137.142C86.0799 130.572 72.2852 105.676 68.5162 104.434L69.9699 103.429C69.9699 103.429 70.9391 102.867 69.1515 102.348C69.1515 102.348 66.384 102.705 66.3086 99.3444L69.2484 96.4269L69.9699 95.7246L71.133 96.2756C71.231 96.4831 71.3068 96.7005 71.3591 96.924C82.9139 105.352 89.6552 136.937 89.6552 136.937Z" fill="#433A59"/>
<path opacity="0.1" d="M94.7623 127.709C93.2655 125.775 93.5562 116.352 84.2305 102.564C86.0522 103.85 87.9551 105.016 89.9272 106.055L89.2595 108.216L90.6917 108.983L94.7623 127.709Z" fill="black"/>
<path d="M94.5231 127.471C93.0262 125.548 93.3062 116.115 83.9805 102.338C85.8023 103.62 87.7052 104.782 89.6772 105.817L89.0202 107.978L90.4417 108.735L94.5231 127.471Z" fill="#433A59"/>
<path opacity="0.1" d="M83.5503 100.09L82.9688 102.564C83.1083 103.276 83.4747 103.924 84.0126 104.409C84.5506 104.894 85.2311 105.191 85.9517 105.255L86.3717 104.077C86.3717 104.077 83.6041 102.294 83.5503 100.09Z" fill="black"/>
<path d="M83.5503 99.8105L82.9688 102.285C83.1083 102.997 83.4747 103.645 84.0126 104.13C84.5506 104.615 85.2311 104.912 85.9517 104.976L86.3717 103.787C86.3717 103.787 83.6041 102.015 83.5503 99.8105Z" fill="#E5E8EF"/>
<path opacity="0.1" d="M79.869 201.307L78.1999 238.985L76.3477 238.812V209.292L76.8322 202.43L79.869 201.307Z" fill="black"/>
<path d="M40.0204 215.862L38.8789 236.241L77.6032 239.482L79.3047 201.307L40.0204 215.862Z" fill="#7B728F"/>
<path opacity="0.1" d="M39.1719 218.053L39.9257 200.051L79.5869 201.877L77.7023 220.905L39.1719 218.053Z" fill="black"/>
<path d="M38.8789 217.482L39.6327 199.48L79.3047 201.307L77.4094 220.335L38.8789 217.482Z" fill="#7B728F"/>
<path d="M60.333 217.504H55.5625V223.08H60.333V217.504Z" fill="#C3BBC8"/>
<path d="M56.2703 181.002L55.5595 182.925C55.5595 182.925 54.0627 193.504 55.9149 194.811C57.7671 196.119 63.2484 196.162 63.5284 195.525C63.8084 194.887 65.8114 187.593 65.8114 187.593C65.8114 187.593 67.5882 192.996 68.5143 192.521C69.4405 192.045 66.3606 181.91 66.3606 181.91L56.2703 181.002Z" fill="#FFC5D3"/>
<path opacity="0.1" d="M55.5625 173.006V183.217C55.5625 183.217 63.1006 184.643 66.3312 182.136C66.3312 182.136 63.2621 172.249 64.4036 169.742C65.5451 167.236 55.5625 173.006 55.5625 173.006Z" fill="black"/>
<path d="M55.5625 172.715V182.926C55.5625 182.926 63.1006 184.363 66.3312 181.845C66.3312 181.845 63.2621 171.958 64.4036 169.462C65.5451 166.966 55.5625 172.715 55.5625 172.715Z" fill="#E5E8EF"/>
<path opacity="0.1" d="M54.7114 112.939L52.7192 114.019C52.7192 114.019 52.353 118.342 52.1484 118.871C52.0402 120.988 52.0402 123.108 52.1484 125.225L52.0515 136.949C51.8891 139.756 51.8891 142.57 52.0515 145.377C52.3531 147.538 52.6976 156.009 52.6976 156.009C52.6976 156.009 54.6252 164.232 53.9145 167.161C53.2038 170.089 53.9791 176.659 55.196 176.086C56.4128 175.513 67.58 173.298 68.1184 172.844C68.6569 172.391 68.3984 168.425 68.1184 167.917C67.8384 167.409 66.1262 160.634 66.2662 159.067C66.4062 157.501 65.7709 143.702 65.7709 143.702C65.7709 143.702 66.8477 128.996 67.2677 125.57C67.6876 122.145 66.4062 112.064 65.2647 111.923C64.1232 111.783 60.828 104.003 54.7114 112.939Z" fill="black"/>
<path d="M54.1411 112.367L52.1489 113.448C52.1489 113.448 51.7935 117.77 51.5782 118.299C51.47 120.42 51.47 122.544 51.5782 124.664L51.4812 136.355C51.3188 139.162 51.3188 141.977 51.4812 144.784C51.7827 146.999 52.1273 155.427 52.1273 155.427C52.1273 155.427 54.0549 163.639 53.3442 166.568C52.6335 169.496 53.4196 176.065 54.6257 175.493C55.8318 174.92 67.0097 172.705 67.5481 172.251C68.0866 171.797 67.8281 167.821 67.5481 167.313C67.2681 166.805 65.5882 160.127 65.6852 158.507C65.7821 156.886 65.1898 143.152 65.1898 143.152C65.1898 143.152 66.2667 128.435 66.6866 125.01C67.1066 121.584 65.8252 111.503 64.6944 111.362C63.5637 111.222 60.3008 103.431 54.1411 112.367Z" fill="#5F5570"/>
<g opacity="0.1">
<path opacity="0.1" d="M75.6682 80.7188C75.2432 80.8362 74.8587 81.0686 74.5567 81.3907C74.2547 81.7128 74.0468 82.1121 73.9559 82.5449C73.7936 83.41 73.7394 84.292 73.7944 85.1706C73.8042 87.0676 73.4947 88.9526 72.879 90.7462L69.0777 83.0527L68.8516 82.5881C69.0308 83.1158 69.2504 83.6287 69.5084 84.1224L73.3098 91.816C73.9254 90.0224 74.2349 88.1373 74.2251 86.2403C74.1602 85.3618 74.2146 84.4785 74.3867 83.6146C74.4776 83.1819 74.6854 82.7826 74.9874 82.4605C75.2894 82.1384 75.674 81.9059 76.0989 81.7885C76.3703 82.2232 76.6148 82.6743 76.8311 83.1392C76.5403 82.289 76.1499 81.4765 75.6682 80.7188Z" fill="black"/>
<path opacity="0.1" d="M95.3658 71.4473C95.5357 72.1612 95.5097 72.9081 95.2904 73.6084C95.1933 73.9533 95.0245 74.2737 94.7951 74.5484C94.048 75.175 93.0835 75.4782 92.1136 75.3913L85.5447 75.6398C85.0208 75.6347 84.4987 75.7038 83.9941 75.8451C82.0664 76.4394 81.1726 78.5032 81.0973 80.3618C81.0219 82.2203 79.9558 84.2841 77.8666 84.457C77.6619 84.4889 77.453 84.4385 77.2852 84.3166C77.3498 84.5111 77.4036 84.6948 77.4574 84.8893C77.4887 85.0792 77.5748 85.2559 77.7051 85.3972C77.8787 85.5149 78.0907 85.5613 78.2974 85.5268C80.3866 85.3647 81.4311 83.3657 81.528 81.4315C81.625 79.4973 82.4972 77.5199 84.4248 76.9256C84.9375 76.7877 85.4662 76.7187 85.997 76.7203L92.5552 76.4827C93.5275 76.5619 94.4925 76.2597 95.2474 75.6398C95.4768 75.365 95.6456 75.0447 95.7427 74.6997C95.9082 74.161 95.9601 73.5937 95.8953 73.0337C95.8304 72.4738 95.6501 71.9335 95.3658 71.4473Z" fill="black"/>
</g>
<path opacity="0.1" d="M84.6719 188.631C85.7366 188.042 86.8894 187.629 88.0855 187.41C89.0332 187.486 97.5728 198.378 97.5728 198.378L84.6719 188.631Z" fill="black"/>
<path opacity="0.1" d="M59.3734 114.885C59.3734 114.885 54.8721 116.819 54.9906 118.126C55.109 119.434 59.3734 114.885 59.3734 114.885Z" fill="black"/>
<path opacity="0.1" d="M57.1773 121.227C57.1773 121.227 52.4499 127.299 53.4945 127.505C54.539 127.71 57.1773 121.227 57.1773 121.227Z" fill="black"/>
<path opacity="0.1" d="M72.9966 130.291C72.9966 130.291 73.4382 143.917 69.9922 145.57L72.9966 130.291Z" fill="black"/>
<path opacity="0.1" d="M54.9805 166.523C54.9805 166.523 58.3188 164.621 59.0834 164.999C59.8479 165.377 54.9805 166.523 54.9805 166.523Z" fill="black"/>
<path opacity="0.1" d="M55.5625 169.16C56.6054 169.248 57.6555 169.149 58.6639 168.868C59.6654 168.436 55.5625 169.16 55.5625 169.16Z" fill="black"/>
<path opacity="0.1" d="M105.863 119.184C105.863 119.184 108.469 126.747 109.977 126.747L105.863 119.184Z" fill="black"/>
<path opacity="0.1" d="M68.6875 263.47C68.6875 263.47 73.5873 262.141 74.3196 263.47C75.0519 264.799 68.6875 263.47 68.6875 263.47Z" fill="black"/>
<path opacity="0.1" d="M53.1068 243.697C53.1068 243.697 51.8792 245.567 53.4945 246.139C55.1098 246.712 53.1068 243.697 53.1068 243.697Z" fill="black"/>
<path opacity="0.1" d="M85.6719 217.504C85.6719 217.504 89.3763 220.81 91.1209 220.908C92.8654 221.005 85.6719 217.504 85.6719 217.504Z" fill="black"/>
<path opacity="0.1" d="M22.6087 260.316C26.8433 260.316 30.276 259.735 30.276 259.019C30.276 258.303 26.8433 257.723 22.6087 257.723C18.3742 257.723 14.9414 258.303 14.9414 259.019C14.9414 259.735 18.3742 260.316 22.6087 260.316Z" fill="#6C63FF"/>
<path d="M23.007 227.121C23.007 227.121 24.5685 229.163 22.2855 232.264C20.0026 235.366 18.1181 237.97 18.8719 239.904C18.8719 239.904 22.3178 234.155 25.1392 234.069C27.9606 233.983 26.0976 230.536 23.007 227.121Z" fill="#7A2AE8"/>
<path opacity="0.1" d="M23.0035 227.121C23.1428 227.316 23.2517 227.531 23.3266 227.759C26.0618 231 27.5264 234.004 24.888 234.08C22.4328 234.145 19.5037 238.553 18.793 239.655C18.8131 239.743 18.8383 239.83 18.8684 239.915C18.8684 239.915 22.3251 234.155 25.1357 234.08C27.9463 234.004 26.0941 230.536 23.0035 227.121Z" fill="black"/>
<path d="M25.914 229.68C25.914 230.404 25.8386 230.987 25.7309 230.987C25.6232 230.987 25.5586 230.425 25.5586 229.68C25.5586 228.934 25.6555 229.301 25.7524 229.301C25.8493 229.301 25.914 228.956 25.914 229.68Z" fill="#FFD037"/>
<path d="M26.9179 230.546C26.2826 230.891 25.7333 231.097 25.6903 231.021C25.6472 230.945 26.1103 230.578 26.7671 230.232C27.424 229.887 27.1441 230.135 27.1979 230.232C27.2518 230.33 27.5425 230.2 26.9179 230.546Z" fill="#FFD037"/>
<path d="M14.7443 227.121C14.7443 227.121 13.1828 229.163 15.4658 232.264C17.7488 235.366 19.6333 237.97 18.8795 239.904C18.8795 239.904 15.4335 234.155 12.6121 234.069C9.79067 233.983 11.6537 230.536 14.7443 227.121Z" fill="#7A2AE8"/>
<path opacity="0.1" d="M14.7473 227.121C14.6081 227.316 14.4991 227.531 14.4242 227.759C11.689 231 10.2245 234.004 12.8628 234.08C15.3181 234.145 18.2471 238.553 18.9579 239.655C18.9389 239.745 18.91 239.832 18.8717 239.915C18.8717 239.915 15.4257 234.155 12.6151 234.08C9.80447 234.004 11.6567 230.536 14.7473 227.121Z" fill="black"/>
<path d="M11.8398 229.68C11.8398 230.404 11.9152 230.987 12.0229 230.987C12.1306 230.987 12.1952 230.425 12.1952 229.68C12.1952 228.934 12.0983 229.301 12.0014 229.301C11.9044 229.301 11.8398 228.956 11.8398 229.68Z" fill="#FFD037"/>
<path d="M10.8423 230.546C11.4776 230.891 12.0268 231.097 12.0807 231.021C12.1345 230.945 11.6499 230.578 11.0038 230.232C10.3577 229.887 10.6269 230.135 10.5731 230.232C10.5192 230.33 10.2177 230.2 10.8423 230.546Z" fill="#FFD037"/>
<path d="M12.3359 239.601C12.3359 239.601 16.708 239.46 18.0326 238.52C19.3571 237.58 24.763 236.456 25.0861 237.969C25.4092 239.482 31.655 245.533 26.723 245.533C21.7909 245.533 15.2435 244.755 13.9297 243.955C12.6159 243.156 12.3359 239.601 12.3359 239.601Z" fill="#A8A8A8"/>
<path opacity="0.2" d="M26.8091 244.993C21.8663 244.993 15.3296 244.225 14.0159 243.415C13.0144 242.799 12.6159 240.606 12.4867 239.59H12.3359C12.3359 239.59 12.6159 243.134 13.9297 243.912C15.2435 244.69 21.7801 245.533 26.723 245.49C28.1444 245.49 28.629 244.971 28.6075 244.215C28.4136 244.701 27.8645 244.982 26.8091 244.993Z" fill="black"/>
<path opacity="0.1" d="M301.444 131.967H248.365C246.515 131.967 245.016 133.471 245.016 135.327V163.811C245.016 165.666 246.515 167.171 248.365 167.171H301.444C303.293 167.171 304.793 165.666 304.793 163.811V135.327C304.793 133.471 303.293 131.967 301.444 131.967Z" fill="#444053"/>
<path d="M223.909 131.967H170.83C168.98 131.967 167.48 133.471 167.48 135.327V163.811C167.48 165.666 168.98 167.171 170.83 167.171H223.909C225.758 167.171 227.258 165.666 227.258 163.811V135.327C227.258 133.471 225.758 131.967 223.909 131.967Z" fill="#7A2AE8"/>
<path opacity="0.1" d="M149.682 186.179V214.662C149.682 215.553 149.329 216.408 148.701 217.038C148.073 217.668 147.221 218.023 146.333 218.023H136.383L149.574 185.336C149.579 185.365 149.579 185.394 149.574 185.422C149.638 185.67 149.674 185.923 149.682 186.179Z" fill="#444053"/>
<path opacity="0.1" d="M301.444 182.818H248.365C246.515 182.818 245.016 184.323 245.016 186.179V214.662C245.016 216.518 246.515 218.023 248.365 218.023H301.444C303.293 218.023 304.793 216.518 304.793 214.662V186.179C304.793 184.323 303.293 182.818 301.444 182.818Z" fill="#444053"/>
<path opacity="0.1" d="M223.909 182.818H170.83C168.98 182.818 167.48 184.323 167.48 186.179V214.662C167.48 216.518 168.98 218.023 170.83 218.023H223.909C225.758 218.023 227.258 216.518 227.258 214.662V186.179C227.258 184.323 225.758 182.818 223.909 182.818Z" fill="#444053"/>
<path opacity="0.1" d="M149.68 237.028V265.522C149.68 266.414 149.327 267.269 148.699 267.899C148.071 268.529 147.219 268.883 146.331 268.883H115.855L130.07 233.668H146.331C147.219 233.668 148.071 234.022 148.699 234.652C149.327 235.282 149.68 236.137 149.68 237.028Z" fill="#444053"/>
<path opacity="0.1" d="M301.444 233.68H248.365C246.515 233.68 245.016 235.184 245.016 237.04V265.523C245.016 267.379 246.515 268.884 248.365 268.884H301.444C303.293 268.884 304.793 267.379 304.793 265.523V237.04C304.793 235.184 303.293 233.68 301.444 233.68Z" fill="#444053"/>
<path opacity="0.1" d="M223.909 233.68H170.83C168.98 233.68 167.48 235.184 167.48 237.04V265.523C167.48 267.379 168.98 268.884 170.83 268.884H223.909C225.758 268.884 227.258 267.379 227.258 265.523V237.04C227.258 235.184 225.758 233.68 223.909 233.68Z" fill="#444053"/>
<path d="M320.053 79.7988H192.196L177.195 116.97H326.019V85.7959C326.019 84.2073 325.391 82.6835 324.272 81.5591C323.154 80.4348 321.636 79.8017 320.053 79.7988ZM265.703 93.6083C265.263 94.0531 264.74 94.4062 264.163 94.6473C263.587 94.8883 262.968 95.0126 262.344 95.013C261.237 95.0152 260.164 94.6323 259.307 93.9294C258.45 93.2265 257.863 92.2472 257.646 91.1584C257.428 90.0697 257.594 88.9389 258.114 87.959C258.635 86.9791 259.478 86.2106 260.5 85.7846C261.522 85.3587 262.659 85.3017 263.719 85.6233C264.778 85.9449 265.693 86.6253 266.308 87.5483C266.923 88.4713 267.2 89.5799 267.092 90.685C266.984 91.79 266.497 92.8232 265.714 93.6083H265.703Z" fill="#7A2AE8"/>
<path opacity="0.1" d="M305.708 85.6562C304.345 85.6562 303.013 86.0618 301.879 86.8217C300.746 87.5816 299.863 88.6616 299.341 89.9253C298.819 91.1889 298.683 92.5794 298.949 93.9209C299.215 95.2624 299.871 96.4946 300.835 97.4617C301.799 98.4289 303.027 99.0875 304.364 99.3544C305.701 99.6212 307.086 99.4842 308.346 98.9608C309.605 98.4374 310.682 97.551 311.439 96.4138C312.196 95.2765 312.6 93.9395 312.6 92.5717C312.597 90.7385 311.87 88.9812 310.579 87.6849C309.287 86.3886 307.535 85.6591 305.708 85.6562ZM305.708 98.4283C304.554 98.4283 303.426 98.0848 302.466 97.4413C301.506 96.7978 300.758 95.8831 300.316 94.8129C299.874 93.7428 299.759 92.5652 299.984 91.4292C300.209 90.2931 300.765 89.2496 301.581 88.4305C302.398 87.6114 303.437 87.0537 304.57 86.8277C305.702 86.6017 306.875 86.7177 307.942 87.161C309.008 87.6043 309.92 88.3549 310.561 89.318C311.203 90.2811 311.545 91.4134 311.545 92.5717C311.545 94.125 310.93 95.6146 309.836 96.7129C308.741 97.8113 307.256 98.4283 305.708 98.4283Z" fill="black"/>
<path d="M292.774 322.207C290.851 321.581 288.82 321.364 286.808 321.569C286.302 321.616 285.834 321.864 285.509 322.257C285.184 322.65 285.028 323.157 285.075 323.665C285.122 324.174 285.368 324.643 285.76 324.969C286.152 325.296 286.657 325.452 287.164 325.405C288.393 325.306 289.609 325.082 290.793 324.735L292.774 322.207Z" fill="#7A2AE8"/>
<path d="M293.518 322.209C294.402 324.035 294.897 326.026 294.972 328.055C294.996 328.565 294.818 329.064 294.475 329.442C294.133 329.82 293.655 330.046 293.147 330.07C292.638 330.094 292.141 329.915 291.765 329.572C291.388 329.228 291.163 328.749 291.138 328.238C291.063 327.001 291.117 325.759 291.3 324.532L293.518 322.209Z" fill="#7A2AE8"/>
<path d="M299.086 314.181C299.086 314.181 297.89 310.41 290.557 311.869C289.86 312 289.231 312.374 288.783 312.925C288.334 313.477 288.094 314.17 288.106 314.881C288.117 315.593 288.38 316.277 288.846 316.814C289.312 317.35 289.953 317.704 290.654 317.812H290.751C295.629 318.492 297.32 316.558 299.086 314.181Z" fill="#7A2AE8"/>
<path d="M299.848 313.963C299.848 313.963 303.79 314.265 304.037 321.754C304.066 322.462 303.845 323.158 303.413 323.719C302.981 324.281 302.365 324.671 301.675 324.822C300.984 324.973 300.263 324.875 299.637 324.545C299.012 324.215 298.522 323.674 298.254 323.018C298.244 322.968 298.226 322.921 298.201 322.877C296.456 318.317 297.942 316.232 299.848 313.963Z" fill="#7A2AE8"/>
<path d="M305.105 304.302C304.828 302.933 304.191 301.663 303.262 300.622C302.333 299.581 301.144 298.808 299.818 298.381C294.864 296.814 292.28 304.259 297.083 306.15C299.091 306.885 301.228 307.197 303.361 307.069L305.105 304.302Z" fill="#7A2AE8"/>
<path d="M311.209 291.879C310.53 290.434 309.526 289.166 308.276 288.176C307.026 287.186 305.564 286.501 304.005 286.174C298.502 285.158 296.833 293.467 302.271 294.818C304.718 295.331 307.244 295.331 309.691 294.818L311.209 291.879Z" fill="#7A2AE8"/>
<path d="M314.806 279.634C313.963 278.3 312.861 277.149 311.566 276.251C310.271 275.353 308.809 274.725 307.268 274.404C302.54 273.507 300.936 280.628 305.588 281.849C308.512 282.563 311.57 282.518 314.472 281.719L314.806 279.634Z" fill="#7A2AE8"/>
<path d="M318.255 267.707C316.747 265.202 314.393 263.323 311.621 262.412C306.883 260.954 304.546 268.161 309.252 269.728C312.047 270.672 315.073 270.672 317.867 269.728L318.255 267.707Z" fill="#7A2AE8"/>
<path d="M319.708 256.824C318.447 254.064 316.454 251.705 313.946 250.005C309.639 247.38 305.547 253.809 309.639 256.705C310.999 257.73 312.561 258.453 314.221 258.825C315.88 259.198 317.6 259.212 319.266 258.866L319.708 256.824Z" fill="#7A2AE8"/>
<path d="M320.418 243.934C319.056 241.181 316.942 238.872 314.323 237.278C309.843 234.901 305.945 241.471 310.166 244.302C312.923 246.149 316.379 247.349 320.041 245.901L320.418 243.934Z" fill="#7A2AE8"/>
<path d="M319.975 232.165C318.414 229.731 316.497 227.545 314.289 225.682C311.155 223.11 307.182 227.735 310.154 230.48C312.9 233.008 316.314 235.126 319.846 234.953L319.975 232.165Z" fill="#7A2AE8"/>
<path d="M318.751 220.885C316.949 217.851 314.778 215.053 312.29 212.554C309.834 210.177 306.205 213.797 308.499 216.304C311.325 219.55 314.949 221.997 319.009 223.403L318.751 220.885Z" fill="#7A2AE8"/>
<path d="M316.49 207.605C315.013 205.303 313.294 203.166 311.364 201.23C308.887 198.799 305.161 202.462 307.531 204.98C310.065 207.909 313.408 210.018 317.136 211.042L316.49 207.605Z" fill="#7A2AE8"/>
<path d="M314.437 195.223C312.92 193.159 311.273 191.196 309.505 189.345C309.11 188.908 308.557 188.646 307.97 188.618C307.382 188.589 306.807 188.797 306.371 189.193C305.936 189.59 305.675 190.145 305.647 190.734C305.619 191.324 305.825 191.901 306.221 192.338C308.374 194.866 311.228 197.125 314.47 197.481L314.437 195.223Z" fill="#7A2AE8"/>
<path d="M312.398 183.737C311.011 181.016 309.427 178.402 307.66 175.913C307.364 175.483 306.911 175.189 306.399 175.095C305.887 175.001 305.358 175.114 304.93 175.411C304.502 175.708 304.208 176.163 304.114 176.676C304.02 177.19 304.134 177.72 304.429 178.15C306.257 181.137 308.946 183.496 312.14 184.914L312.398 183.737Z" fill="#7A2AE8"/>
<path d="M310.672 168.467C310.672 168.467 309.509 166.479 307.829 164.145C307.515 163.728 307.054 163.447 306.539 163.36C306.025 163.274 305.498 163.389 305.066 163.681C304.633 163.973 304.329 164.421 304.216 164.932C304.103 165.442 304.19 165.977 304.458 166.425C306.073 168.9 308.087 171.007 310.435 171.428L310.672 168.467Z" fill="#7A2AE8"/>
<path d="M309.854 158.353L308.379 150.908C308.293 150.52 308.063 150.179 307.736 149.955C307.409 149.731 307.009 149.639 306.617 149.7C306.225 149.76 305.871 149.968 305.627 150.281C305.382 150.593 305.265 150.988 305.299 151.384C305.826 155.36 307.194 159.358 310.155 161.984L309.854 158.353Z" fill="#7A2AE8"/>
<path d="M310.737 137.207C310.601 136.875 310.348 136.604 310.026 136.447C309.704 136.29 309.335 136.258 308.991 136.357C308.646 136.456 308.35 136.68 308.16 136.984C307.97 137.289 307.898 137.653 307.959 138.007C308.291 140.073 308.791 142.107 309.455 144.09L310.737 137.207Z" fill="#7A2AE8"/>
<path d="M305.439 304.163C306.763 303.722 308.18 303.645 309.544 303.939C310.907 304.234 312.167 304.889 313.193 305.838C316.983 309.382 311.858 315.347 307.808 312.073C306.177 310.686 304.85 308.975 303.91 307.048L305.439 304.163Z" fill="#7A2AE8"/>
<path d="M311.489 291.424C313.049 291.113 314.659 291.17 316.193 291.59C317.728 292.01 319.144 292.782 320.33 293.844C324.422 297.68 318.769 303.969 314.461 300.328C312.583 298.673 311.062 296.651 309.992 294.385L311.489 291.424Z" fill="#7A2AE8"/>
<path d="M315.141 280.467C316.429 279.542 317.891 278.887 319.438 278.544C320.985 278.2 322.586 278.175 324.143 278.468C328.882 279.419 327.697 286.605 322.926 286.032C319.951 285.598 317.135 284.412 314.742 282.585L315.141 280.467Z" fill="#7A2AE8"/>
<path d="M318.49 267.771C320.821 266.015 323.701 265.153 326.61 265.34C331.563 265.772 331.036 273.325 326.071 273.011C323.137 272.83 320.343 271.692 318.113 269.77L318.49 267.771Z" fill="#7A2AE8"/>
<path d="M319.645 257.139C321.352 254.634 323.714 252.648 326.472 251.401C331.135 249.553 334.118 256.555 329.595 258.716C328.077 259.508 326.408 259.966 324.699 260.059C322.991 260.152 321.282 259.879 319.688 259.257L319.645 257.139Z" fill="#7A2AE8"/>
<path d="M319.824 243.738C321.517 241.176 323.91 239.157 326.716 237.925C331.454 236.142 334.481 243.176 329.947 245.489C326.975 246.958 323.399 247.65 319.953 245.781L319.824 243.738Z" fill="#7A2AE8"/>
<path d="M318.918 232.049C319.928 229.335 321.333 226.787 323.086 224.485C325.595 221.297 330.484 224.96 328.147 228.288C325.993 231.346 323.15 234.145 319.618 234.772L318.918 232.049Z" fill="#7A2AE8"/>
<path d="M318.555 220.863C319.426 217.442 320.718 214.143 322.399 211.041C322.762 210.474 323.325 210.066 323.976 209.898C324.626 209.731 325.316 209.816 325.906 210.138C326.496 210.459 326.943 210.993 327.158 211.631C327.372 212.27 327.338 212.966 327.062 213.58C325.25 217.479 322.45 220.832 318.942 223.305L318.555 220.863Z" fill="#7A2AE8"/>
<path d="M315.809 206.99C316.832 204.353 318.143 201.838 319.718 199.491C320.112 198.92 320.712 198.525 321.39 198.39C322.069 198.254 322.774 198.388 323.356 198.763C323.938 199.139 324.352 199.726 324.511 200.402C324.67 201.078 324.562 201.789 324.208 202.386C322.27 205.628 319.535 208.87 315.862 210.469L315.809 206.99Z" fill="#7A2AE8"/>
<path d="M313.625 195.157C314.15 192.649 314.834 190.177 315.671 187.755C315.872 187.221 316.269 186.785 316.78 186.537C317.292 186.288 317.879 186.246 318.421 186.42C318.962 186.593 319.417 186.968 319.691 187.468C319.965 187.968 320.037 188.554 319.892 189.106C318.945 192.348 317.319 195.589 314.508 197.221L313.625 195.157Z" fill="#7A2AE8"/>
<path d="M312.094 183.508C312.832 180.562 313.782 177.673 314.937 174.864C315.128 174.384 315.502 174 315.975 173.796C316.449 173.593 316.984 173.586 317.462 173.778C317.94 173.97 318.323 174.345 318.526 174.82C318.729 175.295 318.736 175.832 318.544 176.312C317.439 179.635 315.36 182.547 312.578 184.665L312.094 183.508Z" fill="#7A2AE8"/>
<path d="M309.82 169.516C309.82 169.516 310.262 167.246 311.069 164.502C311.14 164.242 311.261 163.999 311.425 163.786C311.59 163.573 311.794 163.395 312.027 163.262C312.26 163.128 312.517 163.042 312.783 163.008C313.05 162.975 313.32 162.994 313.579 163.065C313.837 163.136 314.08 163.257 314.292 163.422C314.504 163.587 314.681 163.792 314.814 164.026C314.947 164.26 315.033 164.517 315.067 164.785C315.101 165.052 315.082 165.323 315.011 165.582C314.322 168.435 313.116 171.126 311.026 172.303L309.82 169.516Z" fill="#7A2AE8"/>
<path d="M310.348 157.845L312.922 150.714C313.061 150.336 313.34 150.026 313.701 149.85C314.062 149.673 314.477 149.643 314.86 149.765C315.243 149.888 315.564 150.154 315.756 150.507C315.949 150.861 315.998 151.275 315.894 151.665C314.817 155.522 312.846 159.228 309.508 161.389L310.348 157.845Z" fill="#7A2AE8"/>
<path d="M313.561 137.953L314.638 137.121C314.894 136.925 315.213 136.833 315.533 136.863C315.854 136.893 316.151 137.042 316.366 137.281C316.582 137.521 316.7 137.833 316.697 138.155C316.694 138.478 316.57 138.788 316.35 139.023C314.286 140.903 311.915 142.413 309.34 143.486L313.561 137.953Z" fill="#7A2AE8"/>
<path d="M313.365 133.826C314.911 130.672 316.629 127.606 318.512 124.641C318.618 124.437 318.646 124.2 318.592 123.976C318.537 123.752 318.403 123.556 318.214 123.424C318.026 123.291 317.796 123.232 317.567 123.258C317.339 123.283 317.127 123.391 316.972 123.561C315.001 126.471 313.601 129.731 312.848 133.167L313.365 133.826Z" fill="#7A2AE8"/>
<path d="M310.459 171.57L311.008 171.516C308.639 149.354 309.641 135.696 313.776 133.038L313.474 132.562C309.059 135.383 308.047 148.868 310.459 171.57Z" fill="#444053"/>
<path d="M318.598 223.966L319.427 223.836C319.115 221.794 318.759 219.708 318.35 217.655C314.904 199.675 312.223 183.078 310.876 170.425L310.273 169.949C311.62 182.592 314.064 199.794 317.542 217.807C317.941 219.838 318.296 221.924 318.598 223.966Z" fill="#444053"/>
<path d="M280.228 335.962C280.347 335.865 292.968 326.172 304.049 307.587C310.535 296.708 315.26 284.866 318.048 272.502C321.548 257.05 321.645 239.005 319.125 222.191L318.393 222.786C324.078 260.605 313.234 289.996 303.112 306.982C292.138 325.351 279.658 334.979 279.539 335.076L280.228 335.962Z" fill="#444053"/>
<path opacity="0.1" d="M354.588 204.872C358.585 204.872 361.825 201.621 361.825 197.611C361.825 193.601 358.585 190.35 354.588 190.35C350.591 190.35 347.352 193.601 347.352 197.611C347.352 201.621 350.591 204.872 354.588 204.872Z" fill="#6C63FF"/>
<path opacity="0.1" d="M380.465 177.404C387.162 177.404 392.591 171.957 392.591 165.237C392.591 158.518 387.162 153.07 380.465 153.07C373.769 153.07 368.34 158.518 368.34 165.237C368.34 171.957 373.769 177.404 380.465 177.404Z" fill="#6C63FF"/>
<path opacity="0.1" d="M364.407 236.455C371.104 236.455 376.532 231.008 376.532 224.288C376.532 217.568 371.104 212.121 364.407 212.121C357.71 212.121 352.281 217.568 352.281 224.288C352.281 231.008 357.71 236.455 364.407 236.455Z" fill="#6C63FF"/>
<path d="M303.674 349.946C302.596 349.134 301.415 348.469 300.163 347.969C300.066 347.919 299.96 347.889 299.851 347.882C297.255 346.012 294.83 343.915 292.603 341.615L293.971 340.534C291.128 339.173 289.556 336.061 288.016 333.251C283.957 325.781 278.608 319.093 272.218 313.499C272.067 312.894 271.141 313.024 270.667 312.635C270.497 312.484 270.372 312.29 270.306 312.072C270.239 311.855 270.234 311.623 270.291 311.403C270.366 310.971 270.56 310.56 270.667 310.139C270.825 309.112 270.8 308.066 270.592 307.048C270.487 306.539 270.488 306.013 270.593 305.504C270.699 304.995 270.907 304.513 271.206 304.088C271.421 303.839 271.701 303.645 271.917 303.385C272.145 303.08 272.306 302.729 272.387 302.356C272.469 301.983 272.47 301.597 272.39 301.224C272.335 300.485 272.175 299.757 271.917 299.063C274.264 292.738 276.594 286.406 278.906 280.067C280.532 275.637 282.136 271.098 282.341 266.366C282.559 262.554 281.452 258.784 279.207 255.701C279.616 255.603 280.036 255.495 280.445 255.377C277.743 251.778 277.441 247.002 277.376 242.41C277.376 240.141 277.258 237.882 277.139 235.613C277.923 235.962 278.725 236.269 279.541 236.532L280.295 236.769C281.527 237.126 282.783 237.397 284.053 237.58C284.613 237.656 285.184 237.72 285.744 237.753C284.925 235.714 284.114 233.665 283.31 231.604C282.884 230.697 282.625 229.719 282.545 228.719V228.525C282.535 228.413 282.535 228.301 282.545 228.19C282.578 227.917 282.643 227.648 282.739 227.39C282.775 227.26 282.821 227.134 282.879 227.012C283.05 226.636 283.251 226.274 283.482 225.932C283.655 225.672 283.848 225.424 284.042 225.164C284.743 224.334 285.313 223.401 285.733 222.398C285.902 221.893 285.993 221.364 286.002 220.831C286.012 220.287 285.961 219.744 285.851 219.211C285.787 218.854 285.701 218.497 285.614 218.13L285.421 217.493L285.367 217.395C285.367 217.233 285.27 217.071 285.205 216.92L285.151 216.758C285.087 216.585 285.033 216.423 284.958 216.25V216.153C284.053 213.819 282.804 211.593 282.115 209.183C281.92 208.548 281.762 207.902 281.641 207.249C281.641 207.076 281.641 206.903 281.555 206.741C281.469 206.579 281.555 206.46 281.49 206.309C281.425 206.158 281.49 205.985 281.49 205.812V205.336C281.49 205.185 281.49 205.034 281.49 204.861C281.49 204.688 281.49 204.277 281.49 203.996V202.667C281.49 202.451 281.49 202.235 281.49 202.019C281.475 201.915 281.475 201.81 281.49 201.706C281.49 201.392 281.565 201.079 281.619 200.755C281.673 200.474 281.716 200.193 281.781 199.912C281.952 199.131 282.039 198.334 282.039 197.535C282.055 197.377 282.055 197.217 282.039 197.059C282.039 196.886 282.039 196.8 282.039 196.67C282.028 196.635 282.028 196.597 282.039 196.562C282.028 196.474 282.006 196.387 281.975 196.303C281.981 196.264 281.981 196.223 281.975 196.184C281.975 196.184 281.975 196.022 281.899 195.936V195.828L281.802 195.579V195.493C281.802 195.384 281.695 195.287 281.652 195.19C281.463 194.845 281.25 194.512 281.016 194.196C279.455 192.143 276.86 190.576 275.438 188.318C274.602 186.852 274.057 185.237 273.833 183.563L273.64 182.483C273.575 182.105 273.521 181.737 273.446 181.402C273.37 181.067 273.36 180.927 273.317 180.721V180.57C273.317 180.397 273.241 180.214 273.198 180.03V179.9C273.198 179.706 273.112 179.522 273.058 179.328V179.23C273.004 179.025 272.961 178.831 272.907 178.625V178.496C272.843 178.29 272.789 178.074 272.724 177.869C272.66 177.653 272.595 177.437 272.52 177.221L272.294 176.561C272.207 176.334 272.132 176.108 272.035 175.891C271.446 174.345 270.641 172.89 269.644 171.569C268.607 170.145 267.253 168.981 265.691 168.171C264.129 167.361 262.4 166.926 260.642 166.901C258.786 167.08 256.97 167.546 255.257 168.284L250.692 169.97L251.962 169.376C250.63 169.415 249.317 169.697 248.085 170.208C247.471 170.479 246.939 170.909 246.543 171.454C246.148 171.999 245.904 172.639 245.835 173.309C245.835 174.087 246.115 174.876 246.018 175.654C245.856 176.94 244.672 177.815 244.058 178.96C243.705 179.646 243.541 180.415 243.584 181.186V181.726C241.689 180.894 239.794 180.03 237.898 179.111C234.775 177.566 231.599 175.751 229.649 172.823C229.025 171.872 228.573 170.845 227.916 169.905C227.207 168.89 226.414 167.935 225.547 167.053L219.742 160.742C219.29 161.574 219.861 162.568 220.313 163.411C220.794 164.288 221.157 165.226 221.39 166.199C221.454 166.353 221.487 166.518 221.487 166.685C221.487 166.852 221.454 167.017 221.39 167.171C221.179 167.422 220.909 167.615 220.604 167.733C220.075 168.065 219.67 168.563 219.452 169.149C219.234 169.735 219.215 170.377 219.398 170.975C219.605 171.568 219.962 172.096 220.434 172.509C220.906 172.922 221.476 173.205 222.09 173.331C222.499 173.374 222.901 173.472 223.285 173.622C223.985 173.968 224.362 174.778 224.825 175.384C225.852 176.382 227.16 177.039 228.573 177.264C230.726 179.749 232.966 182.137 235.12 184.633C238.351 188.404 241.7 192.197 245.943 194.779C246.384 195.05 246.836 195.298 247.289 195.525C247.299 195.6 247.299 195.677 247.289 195.752C247.186 196.064 247.163 196.397 247.222 196.72C247.28 197.044 247.419 197.347 247.624 197.603C247.83 197.859 248.096 198.058 248.399 198.184C248.701 198.31 249.031 198.358 249.356 198.324L252.587 198.896C252.409 199.311 252.207 199.715 251.984 200.107C251.984 200.355 251.898 200.604 251.844 200.852L251.79 201.176C251.801 201.262 251.801 201.349 251.79 201.436C251.79 201.522 251.79 201.5 251.79 201.522V202.268C252.032 203.51 252.657 204.644 253.578 205.509L254.03 206.05C253.313 206.954 252.812 208.011 252.565 209.14C252.416 209.85 252.344 210.575 252.35 211.301C251.921 211.711 251.596 212.219 251.402 212.781C251.181 213.56 251.097 214.372 251.155 215.18V216.131C251.102 217.267 251.289 218.401 251.704 219.459L251.844 219.708C250.993 221.021 250.076 222.29 249.098 223.511C248.241 224.974 247.854 226.666 247.989 228.358C248.124 230.049 248.774 231.658 249.852 232.966C250.498 233.711 251.338 234.435 251.413 235.43C251.399 235.883 251.352 236.334 251.273 236.78C251.333 237.855 251.565 238.914 251.962 239.914C252.1 240.341 252.149 240.791 252.104 241.238C252.06 241.684 251.923 242.116 251.704 242.507C251.202 243.237 250.97 244.12 251.047 245.003C251.295 246.354 250.735 247.694 250.638 249.055C250.638 249.639 250.638 250.233 250.638 250.827C250.562 251.387 250.443 251.939 250.282 252.481C250.292 252.538 250.292 252.596 250.282 252.654C249.109 253.172 247.956 253.734 246.836 254.339C246.231 254.605 245.731 255.065 245.415 255.647C245.223 256.229 245.197 256.854 245.339 257.451L246.341 264.496L246.169 264.421C246.244 265.577 246.33 266.733 246.416 267.9C246.397 268.786 246.628 269.659 247.084 270.418C247.347 270.703 247.585 271.01 247.795 271.336C248.193 272.136 247.719 273.087 247.364 273.908C247.009 274.729 246.89 275.907 247.666 276.361C248.07 276.637 248.503 276.869 248.958 277.052C248.01 281.018 248.882 285.167 249.765 289.154C250.444 292.191 251.112 295.238 251.79 298.274C252.05 299.563 252.198 300.871 252.231 302.186V302.758C252.331 304.57 252.649 306.362 253.179 308.096C254.256 311.651 253.179 315.92 253.556 319.788C253.769 321.651 254.129 323.493 254.633 325.299C257.086 334.276 258.797 343.442 259.748 352.701C260.574 353.773 261.698 354.574 262.979 355.003C262.882 356.148 262.979 357.467 262.979 358.137C262.98 358.694 262.892 359.249 262.72 359.779C262.488 360.298 262.146 360.76 261.719 361.133C261.291 361.506 260.788 361.782 260.243 361.94C259.91 362.059 259.576 362.145 259.231 362.232L259.608 361.908C257.448 361.423 255.185 361.811 253.308 362.988C253.013 363.137 252.75 363.344 252.536 363.596C252.321 363.849 252.159 364.141 252.059 364.458C251.981 365.061 252.135 365.672 252.49 366.165C253.532 367.698 255.087 368.805 256.873 369.288C258.631 369.753 260.439 370.007 262.257 370.044L265.606 370.239C265.49 370.43 265.447 370.658 265.487 370.879C265.527 371.1 265.646 371.299 265.822 371.438C266.182 371.697 266.607 371.85 267.049 371.881C268.415 372.086 269.802 372.108 271.174 371.946C271.518 371.937 271.851 371.815 272.121 371.6C272.234 371.485 272.298 371.33 272.298 371.168C272.298 371.006 272.234 370.851 272.121 370.736C272.322 370.729 272.516 370.663 272.679 370.546C272.842 370.428 272.966 370.265 273.037 370.077C273.167 369.687 273.208 369.274 273.155 368.866C273.164 367.067 272.797 365.285 272.078 363.637C271.935 363.385 271.716 363.187 271.452 363.07C271.189 362.953 270.895 362.925 270.614 362.988C270.088 360.207 269.771 357.389 269.666 354.56C270.5 354.253 271.313 353.892 272.1 353.479C269.774 349.708 269.731 344.921 270.441 340.513C270.721 339.131 270.926 337.735 271.055 336.331C271.335 333.439 270.702 330.533 269.246 328.022C272.07 329.826 274.568 332.099 276.633 334.743C279.864 339.065 281.91 344.197 285.916 347.709C286.444 347.191 286.993 346.683 287.521 346.175C288.368 347.616 289.168 349.082 289.922 350.573C290.513 351.677 290.979 352.844 291.311 354.052C291.688 355.899 291.732 357.798 291.44 359.66C291.333 360.643 291.203 361.627 291.042 362.61C290.978 363.028 290.881 363.44 290.751 363.842C290.748 363.715 290.719 363.589 290.665 363.474C290.407 363.031 289.717 363.237 289.33 363.539C288.658 364.049 288.103 364.697 287.704 365.441C287.481 365.804 287.376 366.226 287.402 366.651C287.465 366.906 287.582 367.145 287.746 367.35C287.909 367.555 288.115 367.722 288.35 367.84C290.116 368.92 292.323 368.121 294.208 367.364C294.727 367.175 295.222 366.925 295.683 366.619C296.631 365.938 297.148 364.803 298.095 364.144C298.597 363.863 299.083 363.553 299.549 363.215C300.421 362.415 300.497 361.054 301.132 360.038C302.209 358.288 304.567 357.877 305.44 355.975C306.549 353.879 305.3 351.286 303.674 349.946Z" fill="url(#paint1_linear)"/>
<path d="M262.829 358.321C262.83 358.868 262.743 359.412 262.571 359.931C262.333 360.439 261.989 360.888 261.561 361.248C261.134 361.608 260.633 361.871 260.094 362.017C259.017 362.384 257.94 362.492 256.863 362.816C256.394 362.923 255.959 363.15 255.603 363.476C254.656 364.426 255.216 366.134 256.325 366.847C257.513 367.442 258.857 367.65 260.169 367.441C262.964 367.272 265.741 366.874 268.472 366.253C269.452 366.015 270.626 365.561 270.766 364.556C270.789 364.237 270.763 363.916 270.69 363.605C270.009 360.203 269.649 356.745 269.613 353.275C267.62 352.997 265.598 352.997 263.604 353.275C262.452 353.988 262.894 357.144 262.829 358.321Z" fill="#A1616A"/>
<path d="M287.339 346.207C288.243 347.72 289.097 349.261 289.901 350.832C290.491 351.918 290.957 353.067 291.291 354.257C291.656 356.079 291.7 357.952 291.42 359.79C291.312 360.762 291.172 361.735 291.011 362.707C290.988 363.195 290.869 363.674 290.66 364.116C290.451 364.557 290.156 364.953 289.794 365.279C290.153 365.497 290.557 365.629 290.975 365.667C291.393 365.704 291.814 365.646 292.206 365.495C292.998 365.195 293.728 364.752 294.36 364.187C298.419 360.827 301.467 355.943 301.618 350.659C301.659 350.246 301.58 349.829 301.392 349.46C301.198 349.203 300.956 348.987 300.681 348.822C297.652 346.751 294.838 344.38 292.281 341.745C292.128 341.547 291.911 341.41 291.667 341.355C291.474 341.356 291.285 341.408 291.118 341.507C289.557 342.296 286.951 343.409 286.305 345.191C286.739 345.424 287.097 345.777 287.339 346.207Z" fill="#A1616A"/>
<path d="M268.382 363.841C264.914 365.12 261.293 365.934 257.613 366.262C257.394 366.328 257.163 366.34 256.938 366.299C256.714 366.258 256.502 366.163 256.321 366.024C256.201 365.873 256.129 365.689 256.114 365.497C256.098 365.305 256.14 365.112 256.235 364.944C256.441 364.606 256.708 364.309 257.021 364.068L259.476 362.015C257.34 361.562 255.112 361.949 253.252 363.096C252.665 363.389 252.216 363.901 252.003 364.522C251.928 365.123 252.086 365.731 252.444 366.219C253.491 367.733 255.041 368.825 256.816 369.298C258.577 369.75 260.383 370 262.2 370.044L265.517 370.227C265.4 370.415 265.357 370.64 265.397 370.858C265.436 371.076 265.556 371.272 265.733 371.405C266.094 371.672 266.523 371.83 266.971 371.859C268.333 372.064 269.717 372.086 271.085 371.924C271.429 371.915 271.762 371.793 272.032 371.578C272.088 371.523 272.132 371.457 272.162 371.385C272.192 371.313 272.207 371.235 272.207 371.157C272.207 371.078 272.192 371.001 272.162 370.928C272.132 370.856 272.088 370.79 272.032 370.735C272.232 370.72 272.423 370.649 272.585 370.531C272.747 370.413 272.872 370.251 272.948 370.065C273.078 369.687 273.119 369.284 273.066 368.888C273.077 367.112 272.71 365.355 271.989 363.733C271.214 362.307 269.523 363.366 268.382 363.841Z" fill="#3F3D56"/>
<path d="M303.588 350.303C302.512 349.493 301.331 348.835 300.077 348.347C299.988 348.28 299.876 348.251 299.766 348.265C299.655 348.279 299.555 348.336 299.485 348.423V348.509C297.247 351.556 295.499 354.936 294.305 358.526C293.627 360.568 293.088 362.74 291.721 364.404C291.538 364.62 291.247 364.847 290.999 364.717C290.751 364.588 290.859 363.961 290.654 363.637C290.45 363.313 289.739 363.399 289.341 363.691C288.663 364.197 288.104 364.846 287.704 365.593C287.48 365.95 287.378 366.371 287.413 366.792C287.474 367.042 287.588 367.276 287.748 367.478C287.908 367.68 288.11 367.844 288.339 367.959C290.095 369.04 292.302 368.24 294.187 367.484C294.706 367.298 295.201 367.051 295.662 366.749C296.61 366.079 297.126 364.955 298.063 364.307C298.566 364.034 299.051 363.731 299.517 363.399C300.389 362.599 300.465 361.238 301.1 360.255C302.177 358.526 304.535 358.094 305.408 356.246C306.463 354.128 305.214 351.567 303.588 350.303Z" fill="#3F3D56"/>
<path d="M277.152 255.279C280.867 258.077 282.439 263.069 282.267 267.737C282.095 272.405 280.469 276.89 278.853 281.266C276.527 287.533 274.209 293.797 271.897 300.057C272.153 300.752 272.312 301.479 272.371 302.218C272.44 302.583 272.433 302.958 272.352 303.321C272.27 303.683 272.115 304.025 271.897 304.325C271.671 304.573 271.423 304.768 271.186 305.016C270.886 305.433 270.676 305.907 270.568 306.409C270.461 306.911 270.458 307.431 270.562 307.934C270.778 308.935 270.808 309.969 270.648 310.981C270.54 311.402 270.335 311.802 270.26 312.223C270.209 312.436 270.214 312.659 270.275 312.869C270.335 313.079 270.449 313.27 270.605 313.423C271.078 313.801 272.026 313.682 272.166 314.276C278.533 319.77 283.875 326.356 287.942 333.726C289.482 336.503 291.033 339.572 293.897 340.912C291.106 343.135 288.429 345.497 285.875 347.99C281.869 344.478 279.876 339.345 276.603 335.153C274.533 332.544 272.039 330.305 269.226 328.529C270.68 330.997 271.314 333.866 271.035 336.719C270.906 338.106 270.701 339.484 270.422 340.847C269.689 345.169 269.754 349.881 272.08 353.619C269.631 355.059 266.801 355.711 263.971 355.489C262.232 355.24 260.654 354.336 259.556 352.96C258.77 343.721 256.713 334.893 254.441 325.946C253.931 324.153 253.571 322.321 253.364 320.468C253.03 316.665 254.042 312.44 252.976 308.928C252.446 307.223 252.128 305.459 252.029 303.676V303.104C252 301.807 251.853 300.516 251.587 299.246L249.573 290.245C248.69 286.323 247.807 282.217 248.755 278.359C248.301 278.186 247.871 277.958 247.473 277.678C246.698 277.235 246.817 276.079 247.172 275.269C247.527 274.458 247.99 273.518 247.603 272.719C247.39 272.395 247.148 272.091 246.881 271.811C246.429 271.067 246.201 270.208 246.224 269.337L245.977 265.9C247.407 266.473 248.597 267.523 249.347 268.872C247.484 265.965 248.4 261.827 249.778 258.661C250.034 257.699 250.591 256.844 251.366 256.222C252.141 255.6 253.094 255.243 254.085 255.203C261.677 253.852 270.982 250.621 277.152 255.279Z" fill="#3F3D56"/>
<path opacity="0.1" d="M273.681 274.793C273.681 274.793 269.944 277.3 269.944 279.115C269.944 280.93 268.996 297.852 268.996 297.852V309.738C268.996 309.738 269.621 315.983 268.996 317.539C268.372 319.095 268.996 326.281 268.996 327.264C268.996 328.248 269.944 317.539 269.944 317.539V306.334L270.892 280.736L273.681 274.793Z" fill="black"/>
<path d="M252.854 188.22L250.7 187.366C246.264 185.572 241.805 183.789 237.509 181.682C234.386 180.159 231.209 178.365 229.26 175.48C228.635 174.529 228.183 173.535 227.537 172.595C226.822 171.594 226.03 170.651 225.168 169.775L219.353 163.551C218.911 164.383 219.482 165.366 219.934 166.187C220.409 167.052 220.771 167.975 221.011 168.932C221.13 169.238 221.13 169.577 221.011 169.883C220.802 170.14 220.526 170.334 220.214 170.445C219.681 170.771 219.272 171.269 219.055 171.857C218.839 172.445 218.826 173.09 219.019 173.686C219.226 174.274 219.582 174.797 220.053 175.205C220.523 175.612 221.091 175.889 221.7 176.01C222.11 176.053 222.512 176.151 222.896 176.301C223.596 176.647 223.972 177.382 224.436 178.03C225.464 179.022 226.773 179.671 228.183 179.889C230.337 182.341 232.566 184.697 234.72 187.161C237.95 190.878 241.299 194.66 245.542 197.177C247.05 198.105 248.703 198.77 250.431 199.144C250.984 195.45 251.793 191.8 252.854 188.22Z" fill="#A1616A"/>
<path opacity="0.15" d="M252.854 188.22L250.7 187.366C246.264 185.572 241.805 183.789 237.509 181.682C234.386 180.159 231.209 178.365 229.26 175.48C228.635 174.529 228.183 173.535 227.537 172.595C226.822 171.594 226.03 170.651 225.168 169.775L219.353 163.551C218.911 164.383 219.482 165.366 219.934 166.187C220.409 167.052 220.771 167.975 221.011 168.932C221.13 169.238 221.13 169.577 221.011 169.883C220.802 170.14 220.526 170.334 220.214 170.445C219.681 170.771 219.272 171.269 219.055 171.857C218.839 172.445 218.826 173.09 219.019 173.686C219.226 174.274 219.582 174.797 220.053 175.205C220.523 175.612 221.091 175.889 221.7 176.01C222.11 176.053 222.512 176.151 222.896 176.301C223.596 176.647 223.972 177.382 224.436 178.03C225.464 179.022 226.773 179.671 228.183 179.889C230.337 182.341 232.566 184.697 234.72 187.161C237.95 190.878 241.299 194.66 245.542 197.177C247.05 198.105 248.703 198.77 250.431 199.144C250.984 195.45 251.793 191.8 252.854 188.22Z" fill="black"/>
<path d="M248.884 200.613C248.529 200.601 248.181 200.515 247.861 200.363C247.541 200.211 247.255 199.995 247.021 199.727C246.772 199.218 246.7 198.64 246.816 198.085C247.193 194.503 247.988 190.978 249.185 187.582C250.262 189.538 252.33 190.683 254.3 191.721C256.058 192.702 257.891 193.54 259.782 194.227C259.308 194.076 258.145 201.391 257.499 201.791C256.669 202.375 254.677 201.586 253.762 201.435L248.884 200.613Z" fill="#7A2AE8"/>
<path d="M253.922 198.465C259.423 198.465 263.883 193.99 263.883 188.47C263.883 182.95 259.423 178.475 253.922 178.475C248.421 178.475 243.961 182.95 243.961 188.47C243.961 193.99 248.421 198.465 253.922 198.465Z" fill="#A1616A"/>
<path d="M251.898 196.736C251.898 196.736 258.435 202.355 255.635 206.105C252.835 209.854 251.328 212.35 255.011 212.664C258.694 212.977 271.164 206.418 271.164 206.418C271.164 206.418 259.641 197.05 261.472 191.431C263.303 185.812 251.898 196.736 251.898 196.736Z" fill="#FBBEBE"/>
<path d="M258.164 205.51C256.773 205.849 255.502 206.567 254.493 207.585C253.484 208.604 252.775 209.883 252.446 211.281C251.713 214.652 253.275 218.412 251.81 221.513C251.11 222.994 249.829 224.096 248.967 225.479C248.112 226.919 247.725 228.59 247.858 230.26C247.991 231.931 248.638 233.519 249.71 234.804C250.356 235.539 251.196 236.263 251.272 237.235C251.261 237.684 251.218 238.132 251.143 238.575C251.194 239.636 251.424 240.681 251.821 241.665C251.958 242.087 252.006 242.532 251.962 242.973C251.917 243.414 251.781 243.841 251.563 244.226C251.064 244.941 250.835 245.811 250.916 246.679C251.153 248.008 250.593 249.337 250.507 250.688C250.507 251.261 250.507 251.844 250.507 252.428C250.435 252.98 250.32 253.525 250.163 254.059L249.333 257.139C253.836 258.997 258.683 259.867 263.548 259.689C267.905 259.461 272.232 258.825 276.471 257.787C277.774 257.506 279.077 257.236 280.358 256.88C277.644 253.325 277.354 248.613 277.278 244.14C277.179 236.688 276.643 229.248 275.674 221.859C276.874 219.321 277.694 216.62 278.107 213.841C278.353 212.728 278.454 211.588 278.409 210.448C278.111 208.055 277.334 205.747 276.126 203.663C275.146 201.696 274.091 199.621 271.915 198.768C271.391 198.548 270.819 198.466 270.254 198.528C269.689 198.59 269.149 198.796 268.685 199.124C267.048 200.378 267.533 202.517 267.113 204.354C266.755 205.52 266.1 206.573 265.212 207.407C264.324 208.241 263.235 208.827 262.051 209.109C260.313 209.564 258.513 209.732 256.721 209.606C256.597 209.6 256.475 209.57 256.363 209.517C256.25 209.464 256.15 209.389 256.067 209.296C255.983 209.204 255.919 209.096 255.878 208.978C255.837 208.86 255.82 208.736 255.827 208.612C255.837 208.404 255.917 208.206 256.053 208.05C256.742 207.207 257.518 206.342 258.164 205.51Z" fill="#7A2AE8"/>
<path d="M265.884 244.16C262.305 247.322 258.39 250.079 254.211 252.383C251.712 253.637 249.063 254.544 246.673 255.906C246.073 256.174 245.575 256.629 245.251 257.202C245.06 257.778 245.034 258.396 245.176 258.985L246.253 266.463C246.554 268.483 248.493 269.791 250.043 271.077C249.872 270.481 249.91 269.843 250.151 269.272C250.257 269.081 250.376 268.896 250.506 268.721C251.096 267.652 251.283 266.405 251.034 265.209C250.785 264.025 250.648 262.821 250.625 261.611C250.606 261.402 250.642 261.192 250.731 261.002C250.82 260.812 250.958 260.649 251.131 260.53C256.418 257.97 262.115 256.014 267.467 253.593C268.881 253.019 270.214 252.259 271.43 251.335C272.655 250.395 273.478 249.024 273.734 247.499C273.762 247.401 273.768 247.297 273.751 247.196C273.735 247.095 273.696 247 273.638 246.916C273.534 246.794 273.394 246.711 273.239 246.678C270.795 245.835 268.264 245.025 265.884 244.16Z" fill="#A1616A"/>
<path opacity="0.1" d="M255.644 212.803C253.813 213.116 251.886 214.067 251.272 215.818C251.045 216.588 250.961 217.394 251.024 218.195C250.975 219.302 251.162 220.408 251.573 221.437C251.875 222.013 252.236 222.556 252.65 223.057C257.033 228.687 259.23 235.754 263.494 241.427C263.871 241.935 264.571 242.594 264.356 243.188C264.277 243.342 264.208 243.5 264.151 243.664C264.13 243.817 264.147 243.974 264.202 244.119C264.256 244.265 264.346 244.394 264.464 244.496C264.691 244.705 264.867 244.964 264.98 245.252C265.056 245.544 264.862 245.943 264.55 245.911C265.067 247.499 266.628 248.429 268.114 249.153C270.536 250.538 273.297 251.216 276.083 251.108C276.6 249.034 277.321 246.689 277.031 244.571C276.728 242.958 276.195 241.396 275.448 239.936L273.595 235.873C272.119 232.357 270.317 228.989 268.211 225.813C267.421 224.817 266.756 223.729 266.23 222.571C265.659 221.102 264.076 220.064 263.171 218.811C261.872 216.857 260.286 215.112 258.465 213.635C257.654 213.028 256.653 212.733 255.644 212.803Z" fill="black"/>
<path d="M255.644 211.862C253.813 212.175 251.886 213.126 251.272 214.877C251.045 215.647 250.961 216.453 251.024 217.254C250.975 218.361 251.162 219.467 251.573 220.496C251.875 221.072 252.236 221.615 252.65 222.116C257.033 227.746 259.23 234.813 263.494 240.486C263.871 240.993 264.571 241.653 264.356 242.247C264.277 242.4 264.208 242.559 264.151 242.722C264.131 242.876 264.149 243.033 264.203 243.178C264.258 243.323 264.347 243.452 264.464 243.554C264.691 243.764 264.867 244.023 264.98 244.311C265.056 244.602 264.862 244.992 264.55 244.97C265.067 246.558 266.628 247.488 268.114 248.212C270.536 249.597 273.297 250.274 276.083 250.167C276.6 248.093 277.321 245.748 277.031 243.63C276.726 242.014 276.193 240.449 275.448 238.984L273.595 234.932C272.119 231.416 270.317 228.048 268.211 224.872C267.42 223.878 266.754 222.789 266.23 221.63C265.659 220.171 264.076 219.134 263.171 217.881C261.87 215.926 260.283 214.177 258.465 212.694C257.651 212.093 256.653 211.799 255.644 211.862Z" fill="#7A2AE8"/>
<path d="M251.466 172.012C250.135 172.046 248.822 172.32 247.589 172.823C246.977 173.087 246.447 173.509 246.051 174.046C245.656 174.584 245.41 175.217 245.338 175.881C245.451 176.647 245.516 177.419 245.532 178.193C245.36 179.457 244.186 180.354 243.572 181.435C242.495 183.401 243.335 185.887 244.714 187.615C246.092 189.344 247.944 190.684 249.366 192.402C250.478 193.778 251.282 195.378 251.725 197.093C252.167 198.808 252.236 200.599 251.929 202.343C251.755 203.025 251.672 203.726 251.681 204.429C251.917 205.671 252.539 206.806 253.458 207.67C257.512 212.434 261.267 217.447 264.7 222.679C265.724 224.203 266.648 225.791 267.468 227.434C268.143 229.191 268.995 230.874 270.009 232.458C271.032 233.769 272.297 234.869 273.735 235.7C277.347 237.938 281.444 239.265 285.678 239.568L283.212 233.496C282.691 232.451 282.44 231.292 282.48 230.124C282.749 227.963 284.946 226.504 285.656 224.419C286.048 223.046 286.007 221.585 285.538 220.237C284.666 217.158 282.943 214.391 282.016 211.334C281.202 208.653 281.021 205.819 281.489 203.056C281.795 201.861 281.922 200.626 281.866 199.393C281.424 195.676 277.074 193.904 275.071 190.749C273.768 188.728 273.52 186.232 273.078 183.855C272.591 180.361 271.265 177.038 269.212 174.173C268.17 172.758 266.815 171.606 265.252 170.807C263.69 170.008 261.963 169.585 260.21 169.57C258.356 169.738 256.54 170.193 254.825 170.921L250.249 172.596" fill="#3F3D56"/>
<g opacity="0.1">
<path opacity="0.1" d="M271.861 179.814C272.102 181.967 272.661 184.072 273.519 186.06C273.39 185.325 273.272 184.58 273.132 183.899C272.809 182.051 272.3 180.241 271.613 178.496C271.699 178.885 271.775 179.35 271.861 179.814Z" fill="black"/>
<path opacity="0.1" d="M280.265 199.027C279.803 201.79 279.984 204.623 280.793 207.304C281.014 208.038 281.277 208.76 281.579 209.465C281.181 207.364 281.159 205.209 281.514 203.101C281.821 201.909 281.948 200.678 281.891 199.448C281.756 198.401 281.331 197.413 280.664 196.596C280.588 197.385 280.405 198.195 280.265 199.027Z" fill="black"/>
<path opacity="0.1" d="M285.561 220.249C285.295 219.356 284.978 218.48 284.613 217.623C284.768 218.543 284.705 219.487 284.43 220.378C283.709 222.453 281.512 223.89 281.199 226.084C281.159 227.248 281.411 228.403 281.932 229.444C282.093 229.855 282.255 230.266 282.406 230.665C282.395 230.489 282.395 230.312 282.406 230.136C282.675 227.975 284.882 226.516 285.636 224.431C286.063 223.065 286.037 221.598 285.561 220.249Z" fill="black"/>
<path opacity="0.1" d="M272.497 231.658C271.062 230.82 269.795 229.721 268.761 228.417C267.752 226.829 266.901 225.146 266.219 223.392C265.408 221.745 264.483 220.156 263.452 218.638C260.022 213.405 256.271 208.393 252.22 203.629C252.069 203.467 251.929 203.294 251.789 203.121C251.689 203.56 251.653 204.012 251.681 204.461C251.918 205.702 252.54 206.837 253.458 207.703C257.515 212.461 261.27 217.47 264.701 222.701C265.725 224.224 266.649 225.812 267.468 227.455C268.144 229.212 268.995 230.896 270.01 232.48C271.033 233.79 272.298 234.891 273.736 235.721C277.347 237.959 281.445 239.286 285.678 239.59L284.02 235.505C279.933 235.139 275.988 233.822 272.497 231.658Z" fill="black"/>
<path opacity="0.1" d="M248.118 188.415C246.697 186.697 244.888 185.389 243.466 183.639L243.111 183.131C243.078 184.796 243.648 186.416 244.715 187.691C246.083 189.441 247.946 190.749 249.367 192.478C249.915 193.146 250.391 193.871 250.789 194.639C250.487 192.357 249.563 190.203 248.118 188.415Z" fill="black"/>
</g>
<path d="M218.598 130.358L215.788 127.527C215.65 127.379 215.483 127.261 215.298 127.181C215.112 127.1 214.913 127.059 214.711 127.059C214.509 127.059 214.309 127.1 214.124 127.181C213.939 127.261 213.772 127.379 213.634 127.527L195.984 145L188.532 137.436C188.393 137.289 188.226 137.173 188.041 137.093C187.856 137.013 187.657 136.972 187.455 136.972C187.254 136.972 187.054 137.013 186.869 137.093C186.684 137.173 186.517 137.289 186.378 137.436L183.535 140.256C183.391 140.396 183.276 140.564 183.197 140.75C183.119 140.935 183.078 141.135 183.078 141.336C183.078 141.538 183.119 141.738 183.197 141.923C183.276 142.109 183.391 142.277 183.535 142.417L194.907 153.903C195.048 154.046 195.216 154.159 195.401 154.236C195.586 154.313 195.784 154.353 195.984 154.353C196.184 154.353 196.382 154.313 196.567 154.236C196.752 154.159 196.92 154.046 197.061 153.903L218.598 132.476C218.876 132.196 219.033 131.818 219.033 131.422C219.033 131.027 218.876 130.649 218.598 130.369V130.358Z" fill="#3ACC6C"/>
<path d="M192.226 79.7988L177.236 116.97L149.625 185.422L136.487 218.022L130.177 233.669L115.973 268.884H115.887L130.101 233.669L136.412 218.022L149.604 185.336L177.193 116.97L192.194 79.7988H192.226Z" fill="black"/>
<path d="M103.071 302.229C102.68 302.227 102.292 302.15 101.93 302.002C101.561 301.852 101.226 301.631 100.943 301.352C100.659 301.072 100.434 300.739 100.279 300.371C100.124 300.004 100.042 299.61 100.039 299.211C100.036 298.812 100.111 298.417 100.261 298.047L198.773 53.9731C199.074 53.2266 199.659 52.6307 200.398 52.3166C201.137 52.0025 201.97 51.9959 202.714 52.2983C203.458 52.6006 204.052 53.1871 204.365 53.9288C204.678 54.6704 204.685 55.5065 204.383 56.253L105.882 300.327C105.655 300.889 105.266 301.369 104.766 301.708C104.265 302.047 103.675 302.228 103.071 302.229Z" fill="#151A2B"/>
</g>
<defs>
<linearGradient id="paint0_linear" x1="78.2966" y1="283.375" x2="78.2966" y2="64.8773" gradientUnits="userSpaceOnUse">
<stop stop-color="#808080" stop-opacity="0.25"/>
<stop offset="0.54" stop-color="#808080" stop-opacity="0.12"/>
<stop offset="1" stop-color="#808080" stop-opacity="0.1"/>
</linearGradient>
<linearGradient id="paint1_linear" x1="67239.7" y1="-43042.8" x2="67239.7" y2="-84366.8" gradientUnits="userSpaceOnUse">
<stop stop-color="#808080" stop-opacity="0.25"/>
<stop offset="0.54" stop-color="#808080" stop-opacity="0.12"/>
<stop offset="1" stop-color="#808080" stop-opacity="0.1"/>
</linearGradient>
<clipPath id="clip0">
<rect x="-40" width="448" height="372" fill="white"/>
</clipPath>
</defs>
</svg>
