<svg xmlns="http://www.w3.org/2000/svg" viewBox="0 0 857.5 145.6"><defs><style>.cls-1,.cls-3{fill:#7a2ae8;}.cls-2{fill:#151a2b;}.cls-3{opacity:0.5;}</style></defs><title>logo_noir</title><g id="Calque_2" data-name="Calque 2"><g id="Calque_1-2" data-name="Calque 1"><circle class="cls-1" cx="326.77" cy="64.4" r="15.63"/><path class="cls-2" d="M172.06,0c-38.85,0-67.47,27.25-67.47,64.41s28.62,64.39,67.47,64.39,67.46-27.24,67.46-64.39S210.91,0,172.06,0Zm0,99.78c-18.39,0-32.78-14-32.78-35.37S153.67,29,172.06,29s32.78,14,32.78,35.39S190.44,99.78,172.06,99.78Z"/><path class="cls-2" d="M326.77,99.78C306.82,99.78,293,85.63,293,64.41S306.82,29,326.77,29c11.24,0,20.37,4.8,27.85,13.59a1.13,1.13,0,0,0,1.63.11l20.21-18.65a1.14,1.14,0,0,0,.12-1.55C364.77,8,347,0,325,0c-38.51,0-66.78,26.72-66.78,64.41S286.53,128.8,325,128.8c21.95,0,39.73-8,51.54-22.52a1.14,1.14,0,0,0-.12-1.55L356.25,86.08a1.14,1.14,0,0,0-1.63.11C347.14,95,338,99.78,326.77,99.78Z"/><path class="cls-2" d="M469.27,56.63,516.53,4.37a1.13,1.13,0,0,0-.83-1.89H480.94a1.13,1.13,0,0,0-.84.37l-44.69,49a1.13,1.13,0,0,1-2-.76V3.61a1.14,1.14,0,0,0-1.13-1.13H400.57a1.14,1.14,0,0,0-1.13,1.13V125.19a1.13,1.13,0,0,0,1.13,1.13h31.74a1.13,1.13,0,0,0,1.13-1.13V95.8a1.09,1.09,0,0,1,.3-.76l11.62-12.66a1.13,1.13,0,0,1,1.73.07l33.53,43.43a1.11,1.11,0,0,0,.89.44h37.06a1.13,1.13,0,0,0,.91-1.81L469.2,58.08A1.13,1.13,0,0,1,469.27,56.63Z"/><path class="cls-2" d="M604.79,28.41V3.61a1.14,1.14,0,0,0-1.13-1.13H532.21a1.14,1.14,0,0,0-1.13,1.13v24.8a1.13,1.13,0,0,0,1.13,1.13h17.52a1.14,1.14,0,0,1,1.13,1.14V98.13a1.14,1.14,0,0,1-1.13,1.13H532.21a1.13,1.13,0,0,0-1.13,1.13v24.8a1.13,1.13,0,0,0,1.13,1.13h71.45a1.13,1.13,0,0,0,1.13-1.13v-24.8a1.13,1.13,0,0,0-1.13-1.13H586.32a1.14,1.14,0,0,1-1.13-1.13V30.68a1.14,1.14,0,0,1,1.13-1.14h17.34A1.13,1.13,0,0,0,604.79,28.41Z"/><path class="cls-2" d="M690.65,29a46.49,46.49,0,0,1,21.91,5.35,1.12,1.12,0,0,0,1.61-.58L723.44,9A1.13,1.13,0,0,0,723,7.66c-8.81-5-21.29-7.66-34.9-7.66-37.12,0-58.8,19.29-58.8,53.08v72.11a1.13,1.13,0,0,0,1.13,1.13h32.07a1.13,1.13,0,0,0,1.14-1.13V85a1.12,1.12,0,0,1,1.13-1.13h44.4a1.14,1.14,0,0,0,1.13-1.13V57.92a1.14,1.14,0,0,0-1.13-1.13h-44.4a1.13,1.13,0,0,1-1.13-1.13V52.55C663.59,36.62,673.3,29,690.65,29Z"/><path class="cls-2" d="M91.14,98.55H35.48a1.14,1.14,0,0,1-1.14-1.13V3.61a1.13,1.13,0,0,0-1.13-1.13H1.13A1.14,1.14,0,0,0,0,3.61V125.19a1.13,1.13,0,0,0,1.13,1.13h90a1.12,1.12,0,0,0,1.13-1.13V99.68A1.13,1.13,0,0,0,91.14,98.55Z"/><path class="cls-2" d="M829.34,2.48h-5.05a1.13,1.13,0,0,0-1.13,1.13V41.4c0,19.28-10.24,26.9-23.94,26.9-14.22,0-22-8.32-22-25.13V3.61a1.14,1.14,0,0,0-1.13-1.13H744a1.14,1.14,0,0,0-1.13,1.13V45.47c0,33.44,17,51.67,47.52,51.67,12.6,0,23.14-4,30.82-12.11a1.13,1.13,0,0,1,2,.76v2.68c0,19.63-8.33,28.48-26.89,28.48a62.45,62.45,0,0,1-36.39-11.78,1.12,1.12,0,0,0-1.67.4L746.4,128.86a1.13,1.13,0,0,0,.3,1.41c12.11,9.56,29.53,15.33,51,15.33,36.59,0,59.84-20.87,59.84-59.09V3.61a1.14,1.14,0,0,0-1.13-1.13Z"/><path class="cls-3" d="M359.41,49.6,325.5,63.42h0a1.1,1.1,0,0,0,0,2l44.27,18.42a1.1,1.1,0,0,0,1.52-1V46.39a1.1,1.1,0,0,0-1.52-1Z"/></g></g></svg>