<svg width="44" height="38" viewBox="0 0 44 38" fill="none" xmlns="http://www.w3.org/2000/svg">
    <path d="M27.312 22.1728C27.312 23.3332 28.0856 24.1068 29.246 24.1068C30.4064 24.1068 31.18 23.3332 31.18 22.1728V6.31378L34.6612 9.79502C35.4349 10.5686 36.5953 10.5686 36.9821 9.79502C37.3689 9.40822 37.3689 9.02141 37.3689 8.63461C37.3689 8.24781 37.3689 7.861 36.9821 7.4742L30.4064 0.898523L30.0196 0.511719C29.6328 0.511719 29.246 0.511719 28.4724 0.511719C28.4724 0.511719 28.0856 0.511719 28.0856 0.898523L21.5099 7.4742C20.7363 8.24781 20.7363 9.40822 21.5099 9.79502C22.2835 10.5686 23.4439 10.5686 23.8307 9.79502L27.312 6.31378V22.1728Z" fill="white"/>
    <path d="M43.1715 28.7454C42.3979 27.9718 41.2375 27.9718 40.8507 28.7454L37.3694 32.2267V15.9809C37.3694 14.8205 36.5958 14.0469 35.4354 14.0469C34.275 14.0469 33.5014 14.8205 33.5014 15.9809V31.8399L30.0201 28.3586C29.2465 27.585 28.0861 27.585 27.6993 28.3586C27.3125 28.7454 27.3125 29.1322 27.3125 29.519C27.3125 29.9059 27.3125 30.2927 27.6993 30.6795L34.275 37.2551L34.6618 37.6419C35.0486 37.6419 35.0486 37.6419 35.4354 37.6419C35.8222 37.6419 35.8222 37.6419 36.209 37.6419C36.5958 37.6419 36.5958 37.2551 36.5958 37.2551L43.1715 31.0663C43.5583 30.6795 43.5583 30.2927 43.5583 29.9059C43.5583 29.519 43.5583 29.1322 43.1715 28.7454Z" fill="white"/>
    <path d="M7.57967 1.67188L0.617188 17.5309H5.25884L6.41925 14.4364H12.9949L14.1553 17.5309H19.1838L12.2213 1.67188H7.57967ZM7.57967 11.342L9.51369 6.31353L11.4477 11.342H7.57967Z" fill="white"/>
    <path d="M16.4913 23.3365V20.6289H2.95312V24.1101H10.6892L2.95312 33.3935V36.4879H16.8781V33.0066H8.75519L16.4913 23.3365Z" fill="white"/>
</svg>
